<svg width="514" height="514" viewBox="0 0 514 514" fill="none" xmlns="http://www.w3.org/2000/svg">
<circle cx="257" cy="257" r="257" fill="#333333"/>
<path d="M438.64 75.36C390.12 26.84 325.62 0.119995 257 0.119995C188.38 0.119995 123.88 26.84 75.36 75.36C26.84 123.88 0.119995 188.38 0.119995 257C0.119995 325.61 26.84 390.12 75.36 438.64C123.88 487.16 188.38 513.88 257 513.88C325.62 513.88 390.12 487.16 438.64 438.64C439.65 437.63 440.65 436.61 441.64 435.59C442.65 434.56 443.64 433.51 444.63 432.46C450.12 426.6 455.3 420.53 460.17 414.26C460.98 413.22 461.78 412.18 462.56 411.13C467.14 405.05 471.43 398.8 475.43 392.37C476.11 391.27 476.79 390.17 477.46 389.06C481.42 382.48 485.07 375.72 488.41 368.83C488.42 368.8 488.44 368.78 488.46 368.75C488.64 368.37 488.82 368 488.99 367.62C489.38 366.81 489.76 365.99 490.14 365.18C493.49 357.99 496.49 350.65 499.14 343.17C499.61 341.88 500.06 340.57 500.5 339.27C509.31 313.12 513.89 285.43 513.89 257.03C513.87 188.39 487.15 123.88 438.64 75.36ZM496.36 339.85C495.93 341.1 495.48 342.35 495.03 343.6C492.36 350.89 489.38 358.03 486.08 365C486.01 365.15 485.94 365.3 485.86 365.45C485.38 366.46 484.89 367.48 484.39 368.49C484.15 368.98 483.91 369.49 483.65 369.98C480.51 376.26 477.11 382.38 473.47 388.36C472.81 389.46 472.12 390.55 471.44 391.64C467.42 398.03 463.11 404.23 458.55 410.22C457.74 411.28 456.93 412.32 456.12 413.36C451.1 419.74 445.79 425.86 440.19 431.72C439.18 432.78 438.17 433.84 437.12 434.88C391.19 481.41 327.4 510.29 256.99 510.29C155.15 510.29 67.16 449.88 26.97 363.01C26.36 361.7 25.76 360.38 25.17 359.05C11.37 327.82 3.70001 293.3 3.70001 257.01C3.70001 117.35 117.32 3.72998 256.98 3.72998C396.64 3.72998 510.26 117.36 510.26 257.01C510.28 286 505.38 313.87 496.36 339.85Z" fill="#EEEDEB"/>
<path d="M204.47 61.09C209.86 59.57 214.09 61.81 215.82 66.79C216.38 68.41 215.83 68.99 214.4 69.47C210.14 70.92 204.16 67.76 204.47 61.09Z" fill="#EEEDEB"/>
<path d="M214.66 46.75C220.36 50.06 221.45 55.25 217.56 60.37C214.65 59.73 212.88 57.71 212.07 55.05C211.1 51.81 212.33 49.05 214.66 46.75Z" fill="#EEEDEB"/>
<path d="M245.24 84.92C244.09 91.13 239.3 93.87 233.16 91.83C232.9 88.8 234.26 86.45 236.69 84.87C239.47 83.06 242.41 83.57 245.24 84.92Z" fill="#EEEDEB"/>
<path d="M220.9 66.68C219.06 61.32 221.99 56.45 226.76 55.8C227.33 55.72 228.39 56.33 228.59 56.86C230.24 61.22 227.44 66.53 222.87 67.58C222.15 67.75 221.17 66.82 220.9 66.68Z" fill="#EEEDEB"/>
<path d="M207.05 90.46C213.1 88.6 217.64 91.49 218.77 97.77C213.18 101.15 207.56 97.69 207.05 90.46Z" fill="#EEEDEB"/>
<path d="M239.41 76.37C243.12 71.13 248.42 70.55 253.19 74.8C252.36 77.58 250.35 79.18 247.64 79.73C244.32 80.39 241.63 79.06 239.41 76.37Z" fill="#EEEDEB"/>
<path d="M232.27 63.12C237.31 66.18 238.67 70.08 236.59 74.9C235.84 76.64 234.92 77.08 233.23 75.95C228.63 72.88 228.2 67.97 232.27 63.12Z" fill="#EEEDEB"/>
<path d="M204.04 74.5801C209.56 72.9201 213.59 75.06 215.41 80.29C216.05 82.12 215.27 82.68 213.79 83.05C209.36 84.14 205.04 81.2401 204.21 76.5901C204.09 75.9201 204.09 75.2301 204.04 74.5801Z" fill="#EEEDEB"/>
<path d="M247.56 52.03C251.87 55.17 252.66 60.3 249.56 64.64C248.64 65.92 247.81 65.8 246.69 64.95C242.42 61.74 242.84 55.3 247.56 52.03Z" fill="#EEEDEB"/>
<path d="M231.91 58.3799C232.04 56.7399 232.18 55.1 232.31 53.46C234.15 53.79 236.2 53.7099 237.77 54.5399C240.67 56.0799 242.03 58.8599 242.02 62.1699C242.02 62.6299 241.44 63.3699 240.99 63.4999C237.64 64.4599 233.21 61.8299 231.91 58.3799Z" fill="#EEEDEB"/>
<path d="M222.08 73.36C227.69 73.46 231.01 76.52 231.31 81.75C231.44 84.06 231.03 84.44 228.67 84.19C223.36 83.63 220.61 79.19 222.08 73.36Z" fill="#EEEDEB"/>
<path d="M384.5 240.86C384.4 240.86 384.31 240.85 384.21 240.84C383.24 240.68 382.57 239.79 382.72 238.81C383.13 236.15 383.36 233.14 381.94 231.04C380.5 228.9 377.84 228.14 374.77 227.25C372.45 226.59 370.05 225.9 367.97 224.51C364.04 221.9 362.32 217.62 360.67 213.48C359.46 210.46 358.33 207.62 356.41 205.44C355.44 204.34 354.25 203.41 352.99 202.42C351.54 201.28 350.05 200.11 348.8 198.6C345.68 194.82 344.9 190.06 344.14 185.46C343.5 181.56 342.89 177.88 340.97 174.89C336.99 168.71 328.38 167.22 321.86 167.05C316.85 166.91 312.44 167.43 308.73 168.58C308.56 168.63 308.38 168.66 308.2 168.66C307.21 168.66 306.4 167.86 306.4 166.86C306.4 166.01 306.99 165.3 307.78 165.11C311.84 163.87 316.6 163.31 321.96 163.46C332.56 163.73 340.18 167.01 344 172.95C346.33 176.57 347.03 180.79 347.7 184.88C348.41 189.2 349.08 193.28 351.58 196.31C352.58 197.52 353.87 198.53 355.22 199.6C356.55 200.64 357.92 201.73 359.11 203.07C361.44 205.71 362.75 208.99 364.02 212.16C365.54 215.95 366.97 219.54 369.97 221.53C371.59 222.61 373.62 223.19 375.77 223.81C377.74 224.38 379.76 224.95 381.52 225.95C381.02 225.33 380.42 224.81 379.7 224.44C378.86 224.01 377.86 223.77 376.8 223.52C376.08 223.35 375.33 223.17 374.58 222.92C371.44 221.86 368.74 219.59 367.16 216.69C365.84 214.28 365.35 211.62 364.88 209.05C364.36 206.22 363.86 203.55 362.31 201.52C361.4 200.34 360.13 199.4 358.78 198.4C357.39 197.37 355.96 196.31 354.77 194.88C352.45 192.06 351.68 188.58 350.93 185.21C350.22 181.98 349.54 178.93 347.58 176.79C346.98 176.13 346.95 175.12 347.52 174.43C348.09 173.74 349.08 173.58 349.85 174.05C351.92 175.33 354.26 176.77 356.12 178.8C357.3 180.11 358.19 181.55 359.06 182.94C359.33 183.37 359.59 183.8 359.87 184.22C361.5 186.73 363.46 189.04 365.65 191.1C365.13 190.49 364.63 189.86 364.14 189.22C362.52 187.09 361.1 184.82 359.73 182.61C357.81 179.53 356 176.63 353.69 174.08C351.31 171.45 348.22 169.08 344.53 167.04C334.51 161.5 322.28 159.82 310.97 162.44C310.01 162.66 309.04 162.06 308.81 161.1C308.59 160.13 309.19 159.17 310.15 158.94C322.31 156.12 335.47 157.93 346.26 163.89C350.3 166.13 353.69 168.74 356.34 171.66C358.86 174.44 360.85 177.62 362.77 180.7C364.1 182.83 365.47 185.04 366.99 187.03C372.38 194.12 380.09 199.3 388.72 201.62C389.62 201.86 390.19 202.76 390.02 203.68C389.85 204.6 389 205.24 388.08 205.15C375.45 203.92 363.77 196.82 356.84 186.16C356.55 185.72 356.27 185.27 356 184.82C355.27 183.65 354.57 182.53 353.75 181.55C354 182.5 354.21 183.46 354.42 184.42C355.11 187.51 355.75 190.43 357.52 192.58C358.42 193.67 359.62 194.55 360.89 195.49C362.38 196.59 363.92 197.73 365.13 199.31C367.2 202.02 367.8 205.25 368.38 208.37C368.82 210.76 369.24 213.03 370.28 214.94C371.43 217.05 373.4 218.71 375.69 219.48C376.28 219.68 376.91 219.83 377.59 219.98C378.81 220.27 380.08 220.57 381.31 221.2C384.24 222.7 386.32 225.94 386.88 229.85C387.34 233.09 386.78 236.26 386.24 239.32C386.12 240.23 385.36 240.86 384.5 240.86Z" fill="#EEEDEB"/>
<path d="M201.63 175.17C201.52 175.17 201.41 175.16 201.3 175.14C200.32 174.96 199.68 174.02 199.86 173.05C200.38 170.23 202 168.01 203.56 165.87C204.89 164.04 206.15 162.31 206.59 160.39C207.28 157.39 205.93 154.31 204.5 151.06C203.5 148.78 202.46 146.42 202.03 143.89C201.21 139.05 202.71 134.47 204.17 130.04C205.11 127.18 206 124.48 206.3 121.73C206.75 117.7 205.88 113.54 203.84 110.03C202.53 107.77 200.78 105.79 198.92 103.69C196.82 101.32 194.66 98.87 193.13 95.93C192.76 95.22 192.9 94.36 193.48 93.8C194.05 93.25 194.93 93.14 195.62 93.54C203.52 98.08 210.85 102.82 213.76 110.98C215.06 114.63 215.26 118.54 215.35 121.93C215.41 124.24 215.43 126.71 214.91 129.14C214.54 130.87 213.92 132.55 213.32 134.17C212.17 137.27 211.09 140.2 211.99 142.85C212.34 143.87 212.99 144.84 213.69 145.87C214.12 146.51 214.57 147.17 214.97 147.89C217.04 151.6 217.6 156.42 216.54 161.47C215.62 165.84 213.72 169.83 211.87 173.69C211.44 174.58 210.37 174.96 209.47 174.54C208.57 174.11 208.2 173.04 208.62 172.14C210.37 168.47 212.19 164.68 213.01 160.73C213.89 156.53 213.47 152.59 211.82 149.64C211.49 149.06 211.11 148.48 210.7 147.88C209.91 146.7 209.09 145.49 208.58 144.01C207.26 140.15 208.62 136.48 209.94 132.92C210.52 131.35 211.07 129.86 211.39 128.38C211.83 126.33 211.81 124.11 211.76 122.01C211.67 118.76 211.5 115.32 210.38 112.17C208.91 108.05 205.97 104.85 202.31 102.06C203.98 103.96 205.65 105.94 206.96 108.2C209.38 112.37 210.41 117.31 209.88 122.1C209.53 125.22 208.54 128.23 207.59 131.13C206.21 135.33 204.91 139.29 205.58 143.25C205.94 145.34 206.84 147.4 207.8 149.58C209.4 153.23 211.06 157 210.1 161.16C209.5 163.8 207.96 165.91 206.47 167.95C205.08 169.86 203.77 171.66 203.4 173.67C203.23 174.56 202.48 175.17 201.63 175.17Z" fill="#EEEDEB"/>
<path d="M300.71 165C300.7 165 300.7 165 300.69 165C299.7 164.99 298.9 164.18 298.91 163.18C298.93 161.75 297.48 160.48 296.04 159.97C294.55 159.44 292.87 159.39 291.09 159.34C290.67 159.33 290.24 159.32 289.82 159.3C284.01 159.05 279.16 157.54 275.39 154.84C267.87 149.43 265.26 140.18 263.23 131.18C263.02 130.23 263.6 129.29 264.54 129.04C265.48 128.8 266.44 129.35 266.71 130.29C268.31 135.89 270.79 140.45 274.06 143.84C277.79 147.7 282.63 149.96 287.33 150.03C288.67 150.05 290.03 149.9 291.47 149.74C293.29 149.54 295.16 149.33 297.1 149.48C300.94 149.77 305.21 151.92 306.1 156.08C306.31 157.05 305.69 158.01 304.72 158.21C303.75 158.42 302.8 157.8 302.59 156.83C302.11 154.6 299.33 153.25 296.83 153.06C295.23 152.94 293.6 153.12 291.87 153.31C290.39 153.47 288.86 153.64 287.29 153.62C282.67 153.55 277.99 151.77 274.03 148.64C275.04 149.87 276.19 150.97 277.5 151.92C280.69 154.21 284.89 155.49 289.99 155.71C290.39 155.73 290.8 155.74 291.21 155.75C293.19 155.81 295.24 155.86 297.26 156.58C299.9 157.52 302.56 159.94 302.52 163.22C302.49 164.21 301.69 165 300.71 165Z" fill="#EEEDEB"/>
<path d="M55.46 166.94C55.83 161.35 59.35 158.11 64.62 158.14C66.34 158.15 66.69 158.87 66.67 160.37C66.62 164.87 61.65 169.45 55.46 166.94Z" fill="#EEEDEB"/>
<path d="M45.35 152.54C50.37 148.27 55.63 148.98 59.15 154.35C57.57 156.88 55.08 157.88 52.3 157.74C48.94 157.59 46.74 155.5 45.35 152.54Z" fill="#EEEDEB"/>
<path d="M91.54 136.46C97.01 139.61 97.99 145.04 94.02 150.15C91.08 149.38 89.32 147.32 88.64 144.5C87.87 141.28 89.32 138.68 91.54 136.46Z" fill="#EEEDEB"/>
<path d="M66.22 153.32C60.55 153.27 56.94 148.87 57.92 144.17C58.04 143.61 58.96 142.81 59.53 142.8C64.19 142.7 68.26 147.11 67.73 151.77C67.65 152.5 66.44 153.1 66.22 153.32Z" fill="#EEEDEB"/>
<path d="M84.01 174.31C84.27 167.98 88.52 164.67 94.81 165.71C96.13 172.1 90.99 176.25 84.01 174.31Z" fill="#EEEDEB"/>
<path d="M81.53 139.11C77.83 133.86 79.06 128.67 84.65 125.59C86.99 127.3 87.83 129.73 87.44 132.47C86.97 135.81 84.81 137.9 81.53 139.11Z" fill="#EEEDEB"/>
<path d="M66.66 141.41C71.23 137.68 75.36 137.7 79.21 141.28C80.6 142.57 80.71 143.59 79.08 144.8C74.65 148.1 69.87 146.86 66.66 141.41Z" fill="#EEEDEB"/>
<path d="M68.04 171.84C68.32 166.09 71.68 163 77.22 163.03C79.15 163.04 79.43 163.96 79.28 165.47C78.83 170.01 74.65 173.12 69.99 172.35C69.32 172.25 68.67 172.01 68.04 171.84Z" fill="#EEEDEB"/>
<path d="M61.31 123.29C65.71 120.27 70.81 121.25 73.87 125.62C74.77 126.91 74.37 127.66 73.2 128.43C68.75 131.38 62.82 128.83 61.31 123.29Z" fill="#EEEDEB"/>
<path d="M62.08 140.16C60.58 139.49 59.08 138.81 57.58 138.14C58.51 136.52 59.12 134.56 60.42 133.36C62.84 131.14 65.92 130.79 69.03 131.9C69.46 132.06 69.97 132.85 69.94 133.32C69.72 136.8 65.76 140.09 62.08 140.16Z" fill="#EEEDEB"/>
<path d="M72.91 154.43C74.88 149.18 78.87 147.07 83.9 148.53C86.12 149.18 86.35 149.69 85.32 151.83C83.02 156.65 77.92 157.76 72.91 154.43Z" fill="#EEEDEB"/>
<path d="M109.35 252.88C107.51 247.59 109.49 243.23 114.37 241.21C115.96 240.55 116.56 241.07 117.13 242.47C118.83 246.64 116.04 252.79 109.35 252.88Z" fill="#EEEDEB"/>
<path d="M94.43 243.56C97.39 237.67 102.51 236.28 107.85 239.85C107.38 242.79 105.47 244.68 102.86 245.64C99.7 246.81 96.87 245.75 94.43 243.56Z" fill="#EEEDEB"/>
<path d="M130.72 210.76C136.99 211.53 140.01 216.15 138.34 222.4C135.33 222.84 132.9 221.62 131.18 219.29C129.21 216.63 129.54 213.67 130.72 210.76Z" fill="#EEEDEB"/>
<path d="M113.96 236.15C108.71 238.31 103.68 235.67 102.75 230.95C102.64 230.38 103.18 229.29 103.7 229.06C107.96 227.16 113.42 229.63 114.74 234.13C114.96 234.84 114.08 235.87 113.96 236.15Z" fill="#EEEDEB"/>
<path d="M138.52 248.55C136.3 242.62 138.92 237.91 145.12 236.42C148.83 241.8 145.71 247.62 138.52 248.55Z" fill="#EEEDEB"/>
<path d="M122.53 217.1C117.08 213.71 116.19 208.45 120.14 203.44C122.96 204.1 124.68 206.01 125.39 208.69C126.25 211.95 125.08 214.71 122.53 217.1Z" fill="#EEEDEB"/>
<path d="M109.73 225.01C112.49 219.8 116.29 218.21 121.24 220C123.02 220.65 123.52 221.54 122.49 223.29C119.69 228.06 114.81 228.78 109.73 225.01Z" fill="#EEEDEB"/>
<path d="M122.85 252.5C120.87 247.09 122.76 242.94 127.88 240.81C129.67 240.07 130.28 240.81 130.73 242.26C132.08 246.62 129.44 251.11 124.85 252.21C124.19 252.38 123.5 252.41 122.85 252.5Z" fill="#EEEDEB"/>
<path d="M97.75 210.4C100.62 205.91 105.71 204.82 110.22 207.66C111.55 208.5 111.48 209.34 110.7 210.51C107.74 214.96 101.3 214.92 97.75 210.4Z" fill="#EEEDEB"/>
<path d="M105.02 225.64C103.38 225.6 101.73 225.57 100.09 225.53C100.31 223.68 100.11 221.63 100.85 220.02C102.21 217.04 104.91 215.51 108.21 215.33C108.67 215.3 109.45 215.84 109.6 216.28C110.75 219.57 108.38 224.14 105.02 225.64Z" fill="#EEEDEB"/>
<path d="M120.55 234.57C120.31 228.97 123.18 225.47 128.38 224.86C130.68 224.59 131.09 224.98 130.98 227.35C130.73 232.68 126.47 235.68 120.55 234.57Z" fill="#EEEDEB"/>
<path d="M58.49 228.95C56.53 223.7 58.41 219.3 63.23 217.17C64.8 216.47 65.42 216.98 66.02 218.36C67.82 222.48 65.17 228.7 58.49 228.95Z" fill="#EEEDEB"/>
<path d="M43.35 219.98C46.18 214.03 51.26 212.51 56.68 215.96C56.28 218.91 54.42 220.85 51.83 221.87C48.7 223.1 45.84 222.11 43.35 219.98Z" fill="#EEEDEB"/>
<path d="M78.86 186.34C85.15 186.97 88.27 191.52 86.75 197.8C83.76 198.31 81.3 197.15 79.52 194.86C77.49 192.24 77.75 189.28 78.86 186.34Z" fill="#EEEDEB"/>
<path d="M62.7 212.11C57.51 214.39 52.41 211.87 51.37 207.17C51.25 206.61 51.76 205.51 52.27 205.26C56.48 203.26 62 205.6 63.43 210.07C63.67 210.78 62.82 211.83 62.7 212.11Z" fill="#EEEDEB"/>
<path d="M87.54 223.94C85.18 218.06 87.69 213.3 93.86 211.66C97.69 216.95 94.71 222.84 87.54 223.94Z" fill="#EEEDEB"/>
<path d="M70.82 192.86C65.29 189.6 64.28 184.36 68.12 179.25C70.96 179.84 72.72 181.72 73.49 184.37C74.43 187.63 73.32 190.42 70.82 192.86Z" fill="#EEEDEB"/>
<path d="M58.22 201.07C60.86 195.8 64.62 194.11 69.61 195.79C71.4 196.39 71.92 197.28 70.93 199.05C68.24 203.89 63.38 204.73 58.22 201.07Z" fill="#EEEDEB"/>
<path d="M71.97 228.25C69.86 222.89 71.66 218.69 76.72 216.45C78.49 215.67 79.12 216.39 79.6 217.83C81.06 222.16 78.52 226.7 73.95 227.92C73.3 228.1 72.62 228.15 71.97 228.25Z" fill="#EEEDEB"/>
<path d="M45.89 186.75C48.66 182.19 53.71 180.98 58.29 183.72C59.64 184.53 59.59 185.37 58.84 186.56C55.99 191.07 49.55 191.18 45.89 186.75Z" fill="#EEEDEB"/>
<path d="M53.52 201.82C51.87 201.82 50.23 201.82 48.58 201.83C48.76 199.97 48.51 197.93 49.21 196.3C50.5 193.29 53.16 191.7 56.46 191.43C56.92 191.39 57.71 191.91 57.87 192.35C59.11 195.61 56.85 200.24 53.52 201.82Z" fill="#EEEDEB"/>
<path d="M69.26 210.38C68.89 204.78 71.67 201.22 76.86 200.49C79.15 200.17 79.57 200.55 79.51 202.92C79.39 208.25 75.2 211.36 69.26 210.38Z" fill="#EEEDEB"/>
<path d="M230.18 277.1C225.75 280.53 221 280.05 217.52 276.08C216.39 274.79 216.69 274.04 217.83 273.06C221.23 270.12 227.95 270.8 230.18 277.1Z" fill="#EEEDEB"/>
<path d="M226.11 294.22C219.58 293.29 216.63 288.89 218.31 282.69C221.25 282.19 223.65 283.4 225.39 285.56C227.51 288.19 227.41 291.21 226.11 294.22Z" fill="#EEEDEB"/>
<path d="M183.44 270.32C182.17 264.13 185.58 259.8 192.04 259.38C193.42 262.09 193.04 264.78 191.38 267.16C189.48 269.88 186.57 270.51 183.44 270.32Z" fill="#EEEDEB"/>
<path d="M212.85 278.08C216.57 282.36 215.68 287.98 211.51 290.36C211.01 290.65 209.8 290.48 209.42 290.07C206.25 286.64 206.85 280.67 210.69 277.99C211.29 277.56 212.54 278.06 212.85 278.08Z" fill="#EEEDEB"/>
<path d="M216.75 250.85C211.84 254.85 206.54 253.87 203.15 248.47C207.06 243.24 213.57 244.34 216.75 250.85Z" fill="#EEEDEB"/>
<path d="M192.06 276.06C190.59 282.31 185.89 284.84 179.87 282.69C179.59 279.81 180.86 277.56 183.16 276.04C185.99 274.17 188.98 274.4 192.06 276.06Z" fill="#EEEDEB"/>
<path d="M203.65 285.65C197.83 284.7 195.1 281.6 195.23 276.35C195.27 274.46 195.96 273.7 197.95 274.12C203.35 275.24 205.59 279.63 203.65 285.65Z" fill="#EEEDEB"/>
<path d="M225.5 264.43C221.01 268.04 216.47 267.57 212.82 263.4C211.55 261.94 212.05 261.13 213.28 260.24C216.98 257.56 222.07 258.63 224.59 262.63C224.96 263.21 225.21 263.85 225.5 264.43Z" fill="#EEEDEB"/>
<path d="M193.64 301.68C188.46 300.39 185.81 295.93 187.05 290.74C187.42 289.21 188.24 289.01 189.6 289.37C194.76 290.75 196.78 296.87 193.64 301.68Z" fill="#EEEDEB"/>
<path d="M205.75 289.91C206.24 291.48 206.73 293.05 207.22 294.62C205.39 295 203.52 295.85 201.75 295.66C198.49 295.32 196.18 293.25 194.95 290.18C194.78 289.75 195.04 288.85 195.41 288.56C198.17 286.43 203.26 287.2 205.75 289.91Z" fill="#EEEDEB"/>
<path d="M209.24 272.34C204 274.35 199.78 272.76 197.53 268.03C196.54 265.94 196.78 265.43 199.06 264.77C204.2 263.3 208.41 266.38 209.24 272.34Z" fill="#EEEDEB"/>
<path d="M284.93 256.56C280.5 260 275.75 259.51 272.27 255.54C271.14 254.25 271.44 253.5 272.58 252.52C275.98 249.58 282.7 250.26 284.93 256.56Z" fill="#EEEDEB"/>
<path d="M280.87 273.68C274.34 272.75 271.39 268.35 273.07 262.15C276.01 261.65 278.41 262.86 280.15 265.02C282.26 267.65 282.16 270.67 280.87 273.68Z" fill="#EEEDEB"/>
<path d="M238.19 249.78C236.92 243.59 240.33 239.26 246.79 238.84C248.17 241.55 247.79 244.24 246.13 246.62C244.23 249.34 241.32 249.97 238.19 249.78Z" fill="#EEEDEB"/>
<path d="M267.6 257.55C271.32 261.83 270.43 267.45 266.26 269.83C265.76 270.12 264.55 269.95 264.17 269.54C261 266.11 261.6 260.14 265.44 257.46C266.04 257.02 267.29 257.52 267.6 257.55Z" fill="#EEEDEB"/>
<path d="M271.51 230.31C266.6 234.31 261.3 233.33 257.91 227.93C261.81 222.7 268.32 223.8 271.51 230.31Z" fill="#EEEDEB"/>
<path d="M246.81 255.52C245.34 261.77 240.64 264.3 234.62 262.15C234.34 259.27 235.61 257.02 237.91 255.5C240.74 253.64 243.74 253.86 246.81 255.52Z" fill="#EEEDEB"/>
<path d="M258.4 265.11C252.58 264.16 249.85 261.06 249.98 255.81C250.02 253.92 250.71 253.16 252.7 253.58C258.1 254.71 260.35 259.09 258.4 265.11Z" fill="#EEEDEB"/>
<path d="M280.26 243.9C275.77 247.51 271.23 247.04 267.58 242.87C266.31 241.41 266.81 240.6 268.04 239.71C271.74 237.03 276.83 238.1 279.35 242.1C279.71 242.67 279.96 243.31 280.26 243.9Z" fill="#EEEDEB"/>
<path d="M248.39 281.14C243.21 279.85 240.56 275.39 241.8 270.2C242.17 268.67 242.99 268.47 244.35 268.83C249.51 270.21 251.53 276.33 248.39 281.14Z" fill="#EEEDEB"/>
<path d="M260.51 269.37C261 270.94 261.49 272.51 261.98 274.08C260.15 274.46 258.28 275.31 256.51 275.12C253.25 274.78 250.94 272.71 249.71 269.64C249.54 269.21 249.8 268.31 250.17 268.02C252.92 265.89 258.01 266.67 260.51 269.37Z" fill="#EEEDEB"/>
<path d="M264 251.8C258.76 253.81 254.54 252.22 252.29 247.49C251.3 245.4 251.54 244.89 253.82 244.23C258.96 242.77 263.16 245.84 264 251.8Z" fill="#EEEDEB"/>
<path d="M334.64 225C330.21 228.44 325.46 227.95 321.98 223.98C320.85 222.69 321.15 221.94 322.29 220.96C325.7 218.02 332.42 218.7 334.64 225Z" fill="#EEEDEB"/>
<path d="M330.58 242.12C324.05 241.19 321.1 236.79 322.78 230.59C325.72 230.09 328.12 231.3 329.86 233.46C331.98 236.09 331.87 239.11 330.58 242.12Z" fill="#EEEDEB"/>
<path d="M287.9 218.22C286.63 212.03 290.04 207.7 296.5 207.28C297.88 209.99 297.5 212.68 295.84 215.06C293.95 217.78 291.04 218.41 287.9 218.22Z" fill="#EEEDEB"/>
<path d="M317.31 225.98C321.03 230.26 320.14 235.88 315.97 238.26C315.47 238.55 314.26 238.38 313.88 237.97C310.71 234.54 311.31 228.57 315.15 225.89C315.76 225.46 317.01 225.96 317.31 225.98Z" fill="#EEEDEB"/>
<path d="M321.22 198.75C316.31 202.75 311.01 201.77 307.62 196.37C311.52 191.14 318.04 192.24 321.22 198.75Z" fill="#EEEDEB"/>
<path d="M296.52 223.96C295.05 230.21 290.35 232.74 284.33 230.59C284.05 227.71 285.32 225.46 287.62 223.94C290.46 222.07 293.45 222.3 296.52 223.96Z" fill="#EEEDEB"/>
<path d="M308.11 233.55C302.29 232.6 299.56 229.5 299.69 224.25C299.73 222.36 300.42 221.6 302.41 222.02C307.82 223.15 310.06 227.53 308.11 233.55Z" fill="#EEEDEB"/>
<path d="M329.97 212.33C325.48 215.94 320.94 215.47 317.29 211.3C316.02 209.84 316.52 209.03 317.75 208.14C321.45 205.46 326.54 206.53 329.06 210.53C329.42 211.11 329.68 211.75 329.97 212.33Z" fill="#EEEDEB"/>
<path d="M298.1 249.58C292.92 248.29 290.27 243.83 291.51 238.64C291.88 237.11 292.7 236.91 294.06 237.27C299.22 238.65 301.25 244.77 298.1 249.58Z" fill="#EEEDEB"/>
<path d="M310.22 237.81C310.71 239.38 311.2 240.95 311.69 242.52C309.86 242.9 307.99 243.75 306.22 243.56C302.96 243.22 300.65 241.15 299.42 238.08C299.25 237.65 299.51 236.75 299.88 236.46C302.63 234.33 307.72 235.11 310.22 237.81Z" fill="#EEEDEB"/>
<path d="M313.71 220.24C308.47 222.25 304.25 220.66 302 215.93C301.01 213.84 301.25 213.33 303.53 212.67C308.67 211.2 312.88 214.28 313.71 220.24Z" fill="#EEEDEB"/>
<path d="M85.62 88.55C91.01 87.03 95.24 89.27 96.97 94.25C97.53 95.87 96.98 96.45 95.55 96.93C91.29 98.38 85.32 95.23 85.62 88.55Z" fill="#EEEDEB"/>
<path d="M95.82 74.2101C101.52 77.5201 102.61 82.7101 98.72 87.8301C95.81 87.1901 94.04 85.1701 93.23 82.5101C92.26 79.2801 93.49 76.5201 95.82 74.2101Z" fill="#EEEDEB"/>
<path d="M126.4 112.38C125.25 118.59 120.46 121.33 114.32 119.29C114.06 116.26 115.42 113.91 117.85 112.33C120.63 110.53 123.56 111.03 126.4 112.38Z" fill="#EEEDEB"/>
<path d="M102.06 94.1501C100.22 88.7901 103.15 83.9201 107.92 83.2701C108.49 83.1901 109.55 83.8001 109.75 84.3301C111.4 88.6901 108.6 94 104.03 95.05C103.3 95.22 102.33 94.2801 102.06 94.1501Z" fill="#EEEDEB"/>
<path d="M88.21 117.92C94.26 116.06 98.8 118.95 99.93 125.23C94.34 128.61 88.71 125.15 88.21 117.92Z" fill="#EEEDEB"/>
<path d="M120.56 103.83C124.27 98.5901 129.57 98.0101 134.34 102.26C133.51 105.04 131.5 106.64 128.79 107.19C125.48 107.86 122.79 106.52 120.56 103.83Z" fill="#EEEDEB"/>
<path d="M113.42 90.5901C118.46 93.6501 119.82 97.5501 117.74 102.37C116.99 104.11 116.07 104.55 114.38 103.42C109.79 100.34 109.36 95.4301 113.42 90.5901Z" fill="#EEEDEB"/>
<path d="M85.2 102.04C90.72 100.38 94.75 102.52 96.57 107.75C97.21 109.58 96.43 110.14 94.95 110.51C90.52 111.6 86.2 108.7 85.37 104.05C85.24 103.39 85.25 102.7 85.2 102.04Z" fill="#EEEDEB"/>
<path d="M128.72 79.49C133.03 82.63 133.82 87.76 130.72 92.1C129.8 93.38 128.97 93.26 127.85 92.41C123.58 89.2 124 82.77 128.72 79.49Z" fill="#EEEDEB"/>
<path d="M113.07 85.85C113.2 84.21 113.34 82.5701 113.47 80.9301C115.31 81.2601 117.36 81.1801 118.93 82.0101C121.83 83.5501 123.19 86.3301 123.18 89.6401C123.18 90.1001 122.6 90.84 122.15 90.97C118.79 91.93 114.37 89.29 113.07 85.85Z" fill="#EEEDEB"/>
<path d="M103.24 100.82C108.85 100.92 112.17 103.98 112.47 109.21C112.6 111.52 112.19 111.9 109.83 111.65C104.52 111.09 101.77 106.66 103.24 100.82Z" fill="#EEEDEB"/>
<path d="M335.78 106.57C340.19 110.03 340.87 114.76 337.86 119.1C336.88 120.51 336.09 120.4 334.86 119.54C331.18 116.94 330.21 110.25 335.78 106.57Z" fill="#EEEDEB"/>
<path d="M353.38 106.35C354.06 112.91 350.51 116.84 344.09 116.72C342.9 113.99 343.48 111.37 345.16 109.15C347.19 106.46 350.14 105.83 353.38 106.35Z" fill="#EEEDEB"/>
<path d="M340.56 153.56C334.87 156.29 329.83 154.04 327.86 147.88C330.15 145.89 332.85 145.6 335.57 146.63C338.66 147.8 339.98 150.47 340.56 153.56Z" fill="#EEEDEB"/>
<path d="M340.95 123.14C344.2 118.49 349.86 117.99 353.19 121.46C353.59 121.88 353.72 123.09 353.41 123.56C350.86 127.46 344.92 128.33 341.38 125.26C340.82 124.78 341 123.44 340.95 123.14Z" fill="#EEEDEB"/>
<path d="M313.58 125.96C318.65 129.75 318.99 135.13 314.58 139.73C308.55 137.22 308.03 130.63 313.58 125.96Z" fill="#EEEDEB"/>
<path d="M344.03 143.8C350.45 143.71 354.04 147.66 353.42 154.01C350.69 154.98 348.21 154.3 346.17 152.43C343.68 150.14 343.17 147.18 344.03 143.8Z" fill="#EEEDEB"/>
<path d="M350.52 130.23C351.01 136.11 348.67 139.5 343.54 140.66C341.69 141.08 340.79 140.59 340.71 138.56C340.5 133.04 344.21 129.8 350.52 130.23Z" fill="#EEEDEB"/>
<path d="M324.63 114.17C329.22 117.65 329.87 122.17 326.71 126.72C325.61 128.31 324.69 128.02 323.53 127.04C320.03 124.1 319.84 118.9 323.1 115.49C323.58 115 324.14 114.6 324.63 114.17Z" fill="#EEEDEB"/>
<path d="M368.5 136.05C368.51 141.38 364.82 145.05 359.49 145.1C357.92 145.11 357.52 144.37 357.55 142.96C357.63 137.61 363.07 134.16 368.5 136.05Z" fill="#EEEDEB"/>
<path d="M354.14 127.15C355.54 126.29 356.95 125.43 358.35 124.58C359.16 126.26 360.44 127.87 360.69 129.63C361.16 132.88 359.71 135.62 357.03 137.56C356.66 137.83 355.71 137.8 355.35 137.51C352.6 135.35 352.12 130.23 354.14 127.15Z" fill="#EEEDEB"/>
<path d="M336.25 128.03C339.47 132.62 338.96 137.11 334.91 140.43C333.12 141.9 332.57 141.79 331.38 139.74C328.71 135.11 330.67 130.28 336.25 128.03Z" fill="#EEEDEB"/>
<path d="M384.95 134.26C389.36 137.72 390.04 142.45 387.03 146.79C386.05 148.2 385.26 148.09 384.03 147.23C380.34 144.64 379.37 137.95 384.95 134.26Z" fill="#EEEDEB"/>
<path d="M402.54 134.05C403.22 140.61 399.67 144.55 393.25 144.42C392.06 141.69 392.64 139.07 394.32 136.85C396.35 134.16 399.3 133.53 402.54 134.05Z" fill="#EEEDEB"/>
<path d="M389.72 181.25C384.03 183.98 378.99 181.73 377.02 175.57C379.31 173.58 382.01 173.29 384.73 174.32C387.82 175.5 389.14 178.17 389.72 181.25Z" fill="#EEEDEB"/>
<path d="M390.11 150.84C393.36 146.19 399.02 145.69 402.35 149.16C402.75 149.58 402.88 150.79 402.57 151.26C400.02 155.16 394.08 156.03 390.54 152.96C389.98 152.47 390.16 151.14 390.11 150.84Z" fill="#EEEDEB"/>
<path d="M362.74 153.66C367.81 157.45 368.15 162.83 363.74 167.43C357.71 164.91 357.2 158.33 362.74 153.66Z" fill="#EEEDEB"/>
<path d="M393.19 171.5C399.61 171.41 403.2 175.36 402.58 181.71C399.85 182.68 397.37 182 395.33 180.13C392.84 177.84 392.33 174.88 393.19 171.5Z" fill="#EEEDEB"/>
<path d="M399.68 157.92C400.17 163.8 397.83 167.19 392.7 168.35C390.85 168.77 389.95 168.28 389.87 166.25C389.66 160.74 393.37 157.5 399.68 157.92Z" fill="#EEEDEB"/>
<path d="M373.79 141.87C378.38 145.35 379.03 149.87 375.87 154.42C374.77 156.01 373.85 155.72 372.69 154.74C369.19 151.8 369 146.6 372.26 143.19C372.74 142.7 373.3 142.3 373.79 141.87Z" fill="#EEEDEB"/>
<path d="M417.66 163.74C417.67 169.07 413.98 172.74 408.65 172.79C407.08 172.8 406.68 172.06 406.71 170.65C406.79 165.31 412.23 161.86 417.66 163.74Z" fill="#EEEDEB"/>
<path d="M403.3 154.85C404.7 153.99 406.11 153.13 407.51 152.28C408.32 153.96 409.6 155.57 409.85 157.33C410.32 160.58 408.87 163.32 406.19 165.26C405.82 165.53 404.87 165.5 404.51 165.21C401.77 163.05 401.29 157.93 403.3 154.85Z" fill="#EEEDEB"/>
<path d="M385.41 155.73C388.64 160.32 388.12 164.81 384.07 168.13C382.28 169.6 381.73 169.49 380.54 167.44C377.87 162.81 379.83 157.98 385.41 155.73Z" fill="#EEEDEB"/>
<path d="M108.7 308.95C106.86 303.66 108.85 299.3 113.73 297.28C115.32 296.62 115.92 297.15 116.49 298.54C118.18 302.71 115.38 308.86 108.7 308.95Z" fill="#EEEDEB"/>
<path d="M93.79 299.61C96.76 293.73 101.88 292.33 107.21 295.91C106.74 298.85 104.83 300.74 102.22 301.7C99.05 302.87 96.23 301.8 93.79 299.61Z" fill="#EEEDEB"/>
<path d="M130.1 266.84C136.37 267.62 139.38 272.24 137.71 278.49C134.7 278.93 132.27 277.71 130.55 275.37C128.58 272.71 128.92 269.75 130.1 266.84Z" fill="#EEEDEB"/>
<path d="M113.32 292.21C108.07 294.37 103.04 291.72 102.12 287C102.01 286.43 102.55 285.35 103.07 285.12C107.33 283.22 112.79 285.7 114.11 290.2C114.32 290.91 113.44 291.93 113.32 292.21Z" fill="#EEEDEB"/>
<path d="M137.87 304.64C135.65 298.71 138.28 294 144.48 292.52C148.18 297.89 145.06 303.71 137.87 304.64Z" fill="#EEEDEB"/>
<path d="M121.9 273.17C116.45 269.78 115.56 264.51 119.52 259.5C122.34 260.16 124.06 262.08 124.76 264.75C125.63 268.02 124.46 270.79 121.9 273.17Z" fill="#EEEDEB"/>
<path d="M109.1 281.07C111.86 275.86 115.67 274.27 120.61 276.07C122.39 276.72 122.88 277.61 121.85 279.36C119.05 284.13 114.18 284.85 109.1 281.07Z" fill="#EEEDEB"/>
<path d="M122.2 308.58C120.22 303.17 122.12 299.02 127.24 296.9C129.03 296.16 129.64 296.9 130.09 298.35C131.44 302.71 128.8 307.19 124.2 308.3C123.53 308.45 122.84 308.49 122.2 308.58Z" fill="#EEEDEB"/>
<path d="M97.13 266.46C100.01 261.97 105.09 260.88 109.6 263.73C110.93 264.57 110.86 265.41 110.08 266.58C107.12 271.02 100.67 270.98 97.13 266.46Z" fill="#EEEDEB"/>
<path d="M104.39 281.71C102.75 281.67 101.1 281.64 99.46 281.6C99.68 279.75 99.48 277.7 100.22 276.09C101.58 273.11 104.28 271.58 107.59 271.4C108.05 271.37 108.83 271.91 108.98 272.35C110.12 275.63 107.75 280.21 104.39 281.71Z" fill="#EEEDEB"/>
<path d="M119.91 290.64C119.68 285.04 122.54 281.54 127.75 280.93C130.05 280.66 130.46 281.05 130.34 283.42C130.09 288.76 125.83 291.76 119.91 290.64Z" fill="#EEEDEB"/>
<path d="M56.82 283.58C54.98 278.29 56.97 273.93 61.85 271.91C63.44 271.25 64.04 271.78 64.61 273.17C66.31 277.34 63.51 283.49 56.82 283.58Z" fill="#EEEDEB"/>
<path d="M41.91 274.24C44.88 268.36 50 266.96 55.33 270.54C54.86 273.48 52.95 275.37 50.34 276.33C47.18 277.5 44.35 276.43 41.91 274.24Z" fill="#EEEDEB"/>
<path d="M78.22 241.47C84.49 242.25 87.5 246.87 85.83 253.12C82.82 253.56 80.39 252.34 78.67 250C76.71 247.34 77.04 244.38 78.22 241.47Z" fill="#EEEDEB"/>
<path d="M61.44 266.85C56.19 269.01 51.16 266.36 50.24 261.64C50.13 261.07 50.67 259.99 51.19 259.76C55.45 257.86 60.91 260.34 62.23 264.84C62.44 265.54 61.56 266.57 61.44 266.85Z" fill="#EEEDEB"/>
<path d="M85.99 279.27C83.77 273.34 86.4 268.63 92.6 267.15C96.3 272.53 93.18 278.35 85.99 279.27Z" fill="#EEEDEB"/>
<path d="M70.0301 247.8C64.5801 244.41 63.69 239.14 67.65 234.13C70.47 234.79 72.19 236.71 72.89 239.38C73.75 242.66 72.5801 245.42 70.0301 247.8Z" fill="#EEEDEB"/>
<path d="M57.22 255.71C59.98 250.5 63.79 248.91 68.73 250.71C70.51 251.36 71 252.25 69.97 254C67.18 258.76 62.3 259.48 57.22 255.71Z" fill="#EEEDEB"/>
<path d="M70.32 283.21C68.34 277.8 70.24 273.65 75.36 271.53C77.15 270.79 77.76 271.53 78.21 272.98C79.56 277.34 76.92 281.82 72.32 282.93C71.65 283.09 70.97 283.12 70.32 283.21Z" fill="#EEEDEB"/>
<path d="M45.25 241.09C48.13 236.6 53.21 235.51 57.72 238.36C59.05 239.2 58.98 240.04 58.2 241.21C55.24 245.65 48.8 245.61 45.25 241.09Z" fill="#EEEDEB"/>
<path d="M52.51 256.34C50.87 256.3 49.22 256.27 47.58 256.23C47.8 254.38 47.6 252.33 48.34 250.72C49.7 247.74 52.4 246.21 55.71 246.03C56.17 246 56.95 246.54 57.1 246.98C58.24 250.27 55.88 254.84 52.51 256.34Z" fill="#EEEDEB"/>
<path d="M68.04 265.27C67.81 259.67 70.67 256.17 75.88 255.56C78.18 255.29 78.59 255.68 78.47 258.05C78.21 263.4 73.95 266.4 68.04 265.27Z" fill="#EEEDEB"/>
<path d="M158.1 102.19C159.44 96.7501 163.47 94.1801 168.66 95.1401C170.35 95.4501 170.57 96.2201 170.29 97.7001C169.45 102.11 163.75 105.75 158.1 102.19Z" fill="#EEEDEB"/>
<path d="M150.67 86.2401C156.36 82.9201 161.42 84.5401 163.94 90.4401C161.94 92.6501 159.32 93.2002 156.6 92.5802C153.31 91.8402 151.52 89.4001 150.67 86.2401Z" fill="#EEEDEB"/>
<path d="M198.96 78.5C203.8 82.56 203.81 88.08 199.01 92.42C196.25 91.15 194.87 88.81 194.7 85.91C194.5 82.6 196.39 80.3 198.96 78.5Z" fill="#EEEDEB"/>
<path d="M171.08 90.66C165.5 89.61 162.72 84.6601 164.51 80.2001C164.73 79.6701 165.77 79.0501 166.33 79.1301C170.94 79.8501 174.17 84.9101 172.83 89.4001C172.63 90.1101 171.33 90.49 171.08 90.66Z" fill="#EEEDEB"/>
<path d="M184.91 114.44C186.28 108.26 191.04 105.74 197.05 107.86C197.24 114.39 191.45 117.58 184.91 114.44Z" fill="#EEEDEB"/>
<path d="M188.64 79.35C185.91 73.54 188.03 68.6401 194.08 66.5901C196.09 68.6801 196.49 71.22 195.62 73.85C194.57 77.06 192.08 78.74 188.64 79.35Z" fill="#EEEDEB"/>
<path d="M173.6 79.0201C178.75 76.1501 182.81 76.8901 185.98 81.0901C187.12 82.6001 187.05 83.6201 185.23 84.5301C180.29 87.0001 175.81 84.9501 173.6 79.0201Z" fill="#EEEDEB"/>
<path d="M169.62 109.22C170.9 103.61 174.75 101.16 180.2 102.16C182.1 102.51 182.21 103.46 181.8 104.93C180.56 109.33 175.9 111.65 171.45 110.07C170.81 109.84 170.21 109.5 169.62 109.22Z" fill="#EEEDEB"/>
<path d="M171.51 60.24C176.37 58.04 181.22 59.89 183.46 64.73C184.12 66.16 183.6 66.8201 182.31 67.3801C177.41 69.5001 172.02 65.96 171.51 60.24Z" fill="#EEEDEB"/>
<path d="M169.3 76.98C167.94 76.05 166.58 75.13 165.22 74.2C166.41 72.77 167.36 70.94 168.86 69.99C171.63 68.23 174.72 68.42 177.59 70.06C177.99 70.29 178.35 71.16 178.24 71.61C177.42 75.01 172.94 77.56 169.3 76.98Z" fill="#EEEDEB"/>
<path d="M177.47 92.93C180.33 88.1 184.63 86.73 189.33 89.05C191.4 90.08 191.53 90.63 190.15 92.55C187.03 96.89 181.82 97.09 177.47 92.93Z" fill="#EEEDEB"/>
<path d="M283.13 78.9899C288.72 78.6799 292.36 81.79 292.96 87.03C293.16 88.74 292.49 89.18 290.99 89.34C286.52 89.83 281.38 85.4399 283.13 78.9899Z" fill="#EEEDEB"/>
<path d="M296.21 67.22C301.05 71.69 300.98 77 296.07 81.14C293.37 79.88 292.08 77.52 291.88 74.75C291.63 71.39 293.43 68.97 296.21 67.22Z" fill="#EEEDEB"/>
<path d="M317.72 111.15C315.25 116.96 309.97 118.59 304.42 115.26C304.83 112.25 306.67 110.25 309.39 109.24C312.5 108.08 315.25 109.22 317.72 111.15Z" fill="#EEEDEB"/>
<path d="M297.94 88.04C297.31 82.4 301.24 78.2901 306.03 78.7001C306.6 78.7501 307.5 79.57 307.58 80.13C308.24 84.75 304.35 89.32 299.66 89.35C298.93 89.36 298.18 88.23 297.94 88.04Z" fill="#EEEDEB"/>
<path d="M279.24 108.22C285.55 107.72 289.35 111.54 289.08 117.91C282.89 119.99 278.16 115.39 279.24 108.22Z" fill="#EEEDEB"/>
<path d="M313.89 101.53C318.65 97.2199 323.96 97.8199 327.68 103.01C326.27 105.54 323.95 106.67 321.19 106.61C317.81 106.53 315.48 104.64 313.89 101.53Z" fill="#EEEDEB"/>
<path d="M309.82 87.05C314.07 91.14 314.55 95.2401 311.46 99.4901C310.35 101.02 309.35 101.25 307.95 99.7801C304.14 95.7801 304.79 90.89 309.82 87.05Z" fill="#EEEDEB"/>
<path d="M279.77 92.0701C285.52 91.6601 288.98 94.6201 289.62 100.13C289.84 102.05 288.96 102.44 287.44 102.47C282.87 102.57 279.29 98.7901 279.5 94.0701C279.52 93.3901 279.68 92.7201 279.77 92.0701Z" fill="#EEEDEB"/>
<path d="M327.16 79.5601C330.69 83.5601 330.33 88.75 326.36 92.3C325.19 93.35 324.4 93.05 323.49 91.98C320.03 87.91 321.84 81.7301 327.16 79.5601Z" fill="#EEEDEB"/>
<path d="M310.5 82.35C310.99 80.78 311.48 79.21 311.97 77.64C313.69 78.36 315.71 78.73 317.06 79.89C319.55 82.02 320.27 85.04 319.54 88.26C319.44 88.71 318.71 89.31 318.24 89.33C314.76 89.53 311.02 85.99 310.5 82.35Z" fill="#EEEDEB"/>
<path d="M297.64 94.8101C303.09 96.1301 305.66 99.8501 304.82 105.02C304.45 107.3 303.96 107.59 301.71 106.83C296.65 105.11 294.94 100.19 297.64 94.8101Z" fill="#EEEDEB"/>
<path d="M235.9 113.66C240.35 110.26 245.11 110.79 248.55 114.79C249.67 116.09 249.36 116.83 248.22 117.81C244.79 120.72 238.07 119.98 235.9 113.66Z" fill="#EEEDEB"/>
<path d="M240.1 96.5701C246.62 97.5501 249.54 101.98 247.81 108.16C244.87 108.63 242.48 107.41 240.75 105.23C238.66 102.59 238.78 99.5701 240.1 96.5701Z" fill="#EEEDEB"/>
<path d="M282.58 120.82C283.8 127.02 280.35 131.33 273.89 131.69C272.54 128.97 272.93 126.28 274.61 123.92C276.54 121.21 279.45 120.61 282.58 120.82Z" fill="#EEEDEB"/>
<path d="M253.24 112.82C249.55 108.51 250.49 102.9 254.68 100.55C255.18 100.27 256.39 100.44 256.77 100.86C259.91 104.31 259.26 110.28 255.4 112.93C254.79 113.35 253.54 112.84 253.24 112.82Z" fill="#EEEDEB"/>
<path d="M249.11 140.02C254.05 136.06 259.34 137.08 262.69 142.51C258.74 147.7 252.24 146.56 249.11 140.02Z" fill="#EEEDEB"/>
<path d="M262.5 105.32C268.31 106.32 271.01 109.43 270.85 114.69C270.79 116.58 270.1 117.33 268.11 116.9C262.71 115.73 260.5 111.33 262.5 105.32Z" fill="#EEEDEB"/>
<path d="M240.47 126.36C244.99 122.79 249.53 123.29 253.14 127.49C254.4 128.96 253.89 129.77 252.65 130.65C248.93 133.3 243.84 132.19 241.36 128.17C241 127.59 240.75 126.95 240.47 126.36Z" fill="#EEEDEB"/>
<path d="M260.42 101.05C259.94 99.4801 259.46 97.9001 258.98 96.3301C260.81 95.9601 262.69 95.1301 264.45 95.3301C267.71 95.6901 270 97.7801 271.21 100.86C271.38 101.29 271.11 102.19 270.74 102.48C267.98 104.59 262.9 103.77 260.42 101.05Z" fill="#EEEDEB"/>
<path d="M256.79 118.59C262.04 116.62 266.26 118.25 268.46 123C269.43 125.1 269.19 125.61 266.91 126.24C261.76 127.67 257.57 124.55 256.79 118.59Z" fill="#EEEDEB"/>
<path d="M416.13 202.64C414.3 207.94 410.06 210.13 404.97 208.71C403.32 208.25 403.16 207.46 403.58 206.02C404.82 201.69 410.82 198.58 416.13 202.64Z" fill="#EEEDEB"/>
<path d="M422.1 219.19C416.13 221.98 411.24 219.92 409.26 213.81C411.45 211.79 414.11 211.48 416.76 212.34C419.96 213.38 421.53 215.96 422.1 219.19Z" fill="#EEEDEB"/>
<path d="M402.16 212.95C407.62 214.49 409.94 219.68 407.76 223.96C407.5 224.47 406.4 224.99 405.85 224.86C401.33 223.72 398.56 218.4 400.3 214.05C400.57 213.36 401.9 213.09 402.16 212.95Z" fill="#EEEDEB"/>
<path d="M390.53 188.01C388.61 194.04 383.64 196.12 377.84 193.47C378.25 186.95 384.3 184.31 390.53 188.01Z" fill="#EEEDEB"/>
<path d="M398.61 224.32C393.22 226.71 389.24 225.61 386.47 221.15C385.47 219.54 385.63 218.53 387.53 217.79C392.66 215.77 396.94 218.21 398.61 224.32Z" fill="#EEEDEB"/>
<path d="M405.29 194.6C403.5 200.08 399.45 202.17 394.11 200.68C392.25 200.16 392.22 199.2 392.77 197.78C394.4 193.51 399.25 191.62 403.54 193.59C404.16 193.87 404.72 194.27 405.29 194.6Z" fill="#EEEDEB"/>
<path d="M397.08 226.73C395.81 227.77 394.54 228.82 393.27 229.86C394.59 231.18 395.69 232.91 397.27 233.73C400.18 235.23 403.25 234.76 405.96 232.87C406.34 232.61 406.62 231.71 406.47 231.26C405.34 227.96 400.65 225.83 397.08 226.73Z" fill="#EEEDEB"/>
<path d="M396.01 210.11C392.73 214.66 388.32 215.64 383.85 212.91C381.88 211.7 381.8 211.14 383.35 209.35C386.84 205.31 392.05 205.58 396.01 210.11Z" fill="#EEEDEB"/>
<path d="M348.94 256.03C354.24 254.2 356.43 249.96 355.01 244.87C354.55 243.22 353.76 243.06 352.32 243.48C348 244.72 344.89 250.72 348.94 256.03Z" fill="#EEEDEB"/>
<path d="M365.5 262C368.29 256.03 366.23 251.14 360.12 249.16C358.1 251.35 357.79 254.01 358.65 256.66C359.68 259.87 362.27 261.43 365.5 262Z" fill="#EEEDEB"/>
<path d="M359.25 242.07C360.79 247.53 365.98 249.85 370.26 247.67C370.77 247.41 371.29 246.31 371.16 245.76C370.02 241.24 364.7 238.47 360.35 240.21C359.67 240.48 359.4 241.8 359.25 242.07Z" fill="#EEEDEB"/>
<path d="M375.11 251.1C372.28 256.02 374.24 261.36 378.79 262.89C379.34 263.07 380.49 262.68 380.78 262.2C383.23 258.23 381.49 252.49 377.21 250.59C376.53 250.28 375.4 251.02 375.11 251.1Z" fill="#EEEDEB"/>
<path d="M385.53 244.89C382.7 249.81 384.66 255.15 389.21 256.68C389.76 256.86 390.91 256.47 391.2 255.99C393.65 252.02 391.91 246.28 387.63 244.38C386.96 244.07 385.83 244.8 385.53 244.89Z" fill="#EEEDEB"/>
<path d="M393.25 240.46C393.98 246.09 398.78 249.14 403.33 247.6C403.88 247.42 404.55 246.4 404.5 245.84C404.04 241.2 399.17 237.69 394.61 238.78C393.89 238.95 393.43 240.22 393.25 240.46Z" fill="#EEEDEB"/>
<path d="M338.46 227.66C344.49 225.74 346.57 220.77 343.92 214.97C337.4 215.38 334.75 221.44 338.46 227.66Z" fill="#EEEDEB"/>
<path d="M370.62 238.51C373.01 233.12 371.91 229.14 367.45 226.37C365.84 225.37 364.83 225.53 364.09 227.43C362.07 232.57 364.52 236.84 370.62 238.51Z" fill="#EEEDEB"/>
<path d="M340.9 245.19C346.38 243.4 348.47 239.35 346.98 234.01C346.46 232.15 345.5 232.12 344.08 232.67C339.81 234.3 337.92 239.15 339.89 243.44C340.17 244.06 340.57 244.63 340.9 245.19Z" fill="#EEEDEB"/>
<path d="M373.03 242.6C374.07 243.87 375.12 245.14 376.16 246.41C377.48 245.09 379.21 243.99 380.03 242.41C381.53 239.5 381.06 236.43 379.17 233.72C378.91 233.34 378.01 233.06 377.56 233.21C374.27 234.35 372.13 239.03 373.03 242.6Z" fill="#EEEDEB"/>
<path d="M356.42 235.91C360.97 232.63 361.95 228.22 359.22 223.75C358.01 221.78 357.45 221.7 355.66 223.25C351.61 226.74 351.88 231.95 356.42 235.91Z" fill="#EEEDEB"/>
<path d="M350.9 219.82C355.45 216.54 356.43 212.13 353.7 207.66C352.49 205.69 351.93 205.61 350.14 207.16C346.09 210.65 346.36 215.86 350.9 219.82Z" fill="#EEEDEB"/>
<path d="M122.75 179.24C126.75 175.32 131.53 175.25 135.44 178.79C136.71 179.94 136.5 180.72 135.48 181.82C132.45 185.15 125.69 185.25 122.75 179.24Z" fill="#EEEDEB"/>
<path d="M141.58 177.6C146.76 179.74 148.69 184.11 146.97 189.1C146.41 190.72 145.61 190.83 144.2 190.33C139.96 188.83 137.21 182.65 141.58 177.6Z" fill="#EEEDEB"/>
<path d="M124.81 161.77C131.4 161.94 134.85 165.97 133.89 172.32C131.03 173.15 128.51 172.24 126.52 170.28C124.12 167.92 123.88 164.91 124.81 161.77Z" fill="#EEEDEB"/>
<path d="M169.97 180.57C171.95 186.57 169.06 191.27 162.69 192.43C161.01 189.9 161.07 187.18 162.44 184.63C164.01 181.72 166.83 180.75 169.97 180.57Z" fill="#EEEDEB"/>
<path d="M139.86 176.26C135.67 172.44 135.9 166.76 139.77 163.91C140.23 163.57 141.45 163.59 141.88 163.96C145.42 167 145.52 173 142.02 176.11C141.46 176.6 140.16 176.25 139.86 176.26Z" fill="#EEEDEB"/>
<path d="M139.12 203.77C143.53 199.23 148.91 199.59 152.91 204.56C149.63 210.2 143.04 209.87 139.12 203.77Z" fill="#EEEDEB"/>
<path d="M148.34 216.28C152.75 211.74 158.13 212.1 162.13 217.07C158.85 222.72 152.25 222.38 148.34 216.28Z" fill="#EEEDEB"/>
<path d="M148.34 233.99C152.75 229.45 158.13 229.81 162.13 234.78C158.85 240.42 152.25 240.09 148.34 233.99Z" fill="#EEEDEB"/>
<path d="M136.63 227.25C141.04 222.71 146.42 223.07 150.42 228.04C147.14 233.69 140.54 233.35 136.63 227.25Z" fill="#EEEDEB"/>
<path d="M160.74 175.87C161.48 169.49 165.86 166.44 172.08 167.88C172.69 170.71 171.69 173.09 169.58 174.87C166.98 177.04 163.98 177.16 160.74 175.87Z" fill="#EEEDEB"/>
<path d="M148.12 167.68C154.01 167.95 157.08 170.71 157.56 175.94C157.74 177.83 157.14 178.66 155.11 178.47C149.61 177.99 146.88 173.89 148.12 167.68Z" fill="#EEEDEB"/>
<path d="M220.41 154.76C226.3 155.03 229.37 157.79 229.85 163.02C230.03 164.91 229.43 165.74 227.4 165.55C221.91 165.07 219.17 160.97 220.41 154.76Z" fill="#EEEDEB"/>
<path d="M219.14 132.21C225.03 132.48 228.1 135.24 228.58 140.47C228.76 142.36 228.16 143.19 226.13 143C220.64 142.51 217.9 138.42 219.14 132.21Z" fill="#EEEDEB"/>
<path d="M228.29 144.29C233.87 146.2 236.04 149.71 235.04 154.87C234.68 156.73 233.87 157.36 231.98 156.62C226.83 154.6 225.36 149.9 228.29 144.29Z" fill="#EEEDEB"/>
<path d="M235.97 132.67C240.79 136.07 241.88 140.05 239.47 144.72C238.6 146.4 237.65 146.78 236.04 145.54C231.68 142.16 231.58 137.23 235.97 132.67Z" fill="#EEEDEB"/>
<path d="M258.02 152.65C257.07 158.47 253.97 161.19 248.72 161.07C246.83 161.03 246.07 160.34 246.49 158.35C247.61 152.94 252 150.7 258.02 152.65Z" fill="#EEEDEB"/>
<path d="M259.03 168.67C255.43 173.34 251.41 174.27 246.84 171.67C245.2 170.73 244.86 169.77 246.17 168.21C249.73 163.99 254.66 164.1 259.03 168.67Z" fill="#EEEDEB"/>
<path d="M208.83 197.75C209.77 203.57 207.69 207.14 202.67 208.68C200.86 209.24 199.93 208.82 199.69 206.8C199.05 201.32 202.5 197.8 208.83 197.75Z" fill="#EEEDEB"/>
<path d="M92.93 226.56C93.87 232.38 91.79 235.95 86.77 237.49C84.96 238.05 84.03 237.63 83.79 235.61C83.15 230.13 86.6 226.61 92.93 226.56Z" fill="#EEEDEB"/>
<path d="M95.9 252.54C96.84 258.36 94.76 261.93 89.74 263.47C87.93 264.03 87 263.61 86.76 261.59C86.12 256.11 89.57 252.59 95.9 252.54Z" fill="#EEEDEB"/>
<path d="M230 206.31C230.94 212.13 228.86 215.7 223.84 217.24C222.03 217.8 221.1 217.38 220.86 215.36C220.22 209.88 223.68 206.36 230 206.31Z" fill="#EEEDEB"/>
<path d="M224.36 191.4C225.3 197.22 223.22 200.79 218.2 202.33C216.39 202.89 215.46 202.47 215.22 200.45C214.58 194.96 218.03 191.45 224.36 191.4Z" fill="#EEEDEB"/>
<path d="M324.31 138.84C325.25 144.66 323.17 148.23 318.15 149.77C316.34 150.33 315.41 149.91 315.17 147.89C314.53 142.41 317.98 138.9 324.31 138.84Z" fill="#EEEDEB"/>
<path d="M374.44 167.21C375.38 173.03 373.3 176.6 368.28 178.14C366.47 178.7 365.54 178.28 365.3 176.26C364.66 170.78 368.11 167.27 374.44 167.21Z" fill="#EEEDEB"/>
<path d="M238.19 189.88C241.93 194.43 241.94 198.56 238.38 202.43C237.1 203.82 236.08 203.94 234.86 202.31C231.54 197.89 232.76 193.11 238.19 189.88Z" fill="#EEEDEB"/>
<path d="M105.28 177.59C105.1 183.48 102.38 186.59 97.16 187.15C95.28 187.35 94.44 186.77 94.59 184.74C95 179.24 99.05 176.45 105.28 177.59Z" fill="#EEEDEB"/>
<path d="M100.9 192.73C100.72 198.62 98 201.73 92.78 202.29C90.9 202.49 90.06 201.91 90.21 199.88C90.61 194.38 94.67 191.58 100.9 192.73Z" fill="#EEEDEB"/>
<path d="M118.42 185.92C118.24 191.81 115.52 194.92 110.3 195.48C108.42 195.68 107.58 195.1 107.73 193.07C108.14 187.57 112.2 184.77 118.42 185.92Z" fill="#EEEDEB"/>
<path d="M127.43 190.5C127.25 196.39 124.53 199.5 119.31 200.06C117.43 200.26 116.59 199.68 116.74 197.65C117.15 192.15 121.21 189.35 127.43 190.5Z" fill="#EEEDEB"/>
<path d="M119.65 170.11C119.47 176 116.75 179.11 111.53 179.67C109.65 179.87 108.81 179.29 108.96 177.26C109.37 171.76 113.42 168.97 119.65 170.11Z" fill="#EEEDEB"/>
<path d="M113.53 141.72C107.9 143.47 104.08 141.92 101.84 137.17C101.03 135.46 101.31 134.47 103.28 133.95C108.61 132.54 112.58 135.46 113.53 141.72Z" fill="#EEEDEB"/>
<path d="M127.74 130.29C122.11 132.04 118.29 130.49 116.05 125.74C115.24 124.03 115.52 123.04 117.49 122.52C122.83 121.11 126.79 124.03 127.74 130.29Z" fill="#EEEDEB"/>
<path d="M141.73 122.31C136.1 124.06 132.28 122.51 130.04 117.76C129.23 116.05 129.51 115.06 131.48 114.54C136.82 113.14 140.79 116.06 141.73 122.31Z" fill="#EEEDEB"/>
<path d="M150.65 106.35C145.02 108.1 141.2 106.55 138.96 101.8C138.15 100.09 138.43 99.1001 140.4 98.5801C145.73 97.1701 149.7 100.09 150.65 106.35Z" fill="#EEEDEB"/>
<path d="M158.09 120.62C152.21 121 148.85 118.6 147.79 113.45C147.41 111.6 147.91 110.7 149.94 110.66C155.46 110.54 158.63 114.32 158.09 120.62Z" fill="#EEEDEB"/>
<path d="M174.74 126.79C169.65 123.82 168.22 119.95 170.22 115.09C170.94 113.34 171.86 112.88 173.56 113.98C178.2 116.97 178.72 121.87 174.74 126.79Z" fill="#EEEDEB"/>
<path d="M189.61 134.49C184.52 131.52 183.09 127.65 185.09 122.79C185.81 121.04 186.73 120.58 188.43 121.68C193.07 124.67 193.59 129.57 189.61 134.49Z" fill="#EEEDEB"/>
<path d="M219.27 108.69C218.2 102.89 220.19 99.2801 225.18 97.6201C226.98 97.0201 227.92 97.4201 228.2 99.4301C228.96 104.9 225.59 108.49 219.27 108.69Z" fill="#EEEDEB"/>
<path d="M223 127.4C223.44 121.52 226.29 118.54 231.54 118.2C233.43 118.08 234.24 118.7 234 120.72C233.35 126.2 229.17 128.82 223 127.4Z" fill="#EEEDEB"/>
<path d="M197.42 150.01C192.33 147.04 190.9 143.17 192.9 138.31C193.62 136.56 194.54 136.1 196.24 137.2C200.88 140.19 201.4 145.09 197.42 150.01Z" fill="#EEEDEB"/>
<path d="M253.37 192.46C257.11 197.02 257.12 201.14 253.56 205.01C252.28 206.4 251.26 206.52 250.04 204.89C246.72 200.47 247.93 195.7 253.37 192.46Z" fill="#EEEDEB"/>
<path d="M262.94 179.25C266.68 183.81 266.69 187.93 263.13 191.8C261.85 193.19 260.83 193.31 259.61 191.68C256.29 187.26 257.5 182.49 262.94 179.25Z" fill="#EEEDEB"/>
<path d="M314.43 172.44C319.86 174.74 321.77 178.39 320.41 183.47C319.92 185.3 319.07 185.87 317.24 185C312.25 182.62 311.11 177.83 314.43 172.44Z" fill="#EEEDEB"/>
<path d="M332.7 173.35C337.06 177.32 337.65 181.41 334.68 185.74C333.61 187.3 332.62 187.56 331.18 186.13C327.27 182.23 327.79 177.33 332.7 173.35Z" fill="#EEEDEB"/>
<path d="M341.11 193.72C345.47 197.69 346.06 201.78 343.09 206.11C342.02 207.67 341.03 207.93 339.59 206.49C335.68 202.6 336.19 197.7 341.11 193.72Z" fill="#EEEDEB"/>
<path d="M329.27 189.83C333.63 193.8 334.22 197.89 331.25 202.22C330.18 203.78 329.19 204.04 327.75 202.61C323.83 198.71 324.35 193.81 329.27 189.83Z" fill="#EEEDEB"/>
<path d="M273.77 183.78C277.51 188.34 277.52 192.46 273.96 196.33C272.68 197.72 271.66 197.84 270.44 196.21C267.12 191.8 268.33 187.02 273.77 183.78Z" fill="#EEEDEB"/>
<path d="M278.58 167.73C284.44 168.38 287.32 171.33 287.47 176.58C287.52 178.47 286.87 179.26 284.87 178.95C279.41 178.11 276.94 173.84 278.58 167.73Z" fill="#EEEDEB"/>
<path d="M253.21 147.53C249.61 152.2 245.59 153.13 241.02 150.53C239.37 149.59 239.04 148.63 240.35 147.07C243.91 142.85 248.83 142.96 253.21 147.53Z" fill="#EEEDEB"/>
<path d="M128.86 191.29C132.9 187.19 137.47 187.13 141.57 190.85C143 192.15 142.6 193.02 141.48 194.04C138.12 197.13 132.93 196.65 129.97 192.97C129.54 192.44 129.22 191.83 128.86 191.29Z" fill="#EEEDEB"/>
<path d="M156.21 150.61C161.5 151.29 164.66 155.42 164.02 160.72C163.83 162.28 163.04 162.57 161.65 162.37C156.36 161.59 153.64 155.75 156.21 150.61Z" fill="#EEEDEB"/>
<path d="M145.53 163.7C144.86 162.2 144.19 160.69 143.52 159.19C145.29 158.6 147.05 157.54 148.83 157.52C152.11 157.48 154.64 159.27 156.22 162.17C156.44 162.57 156.29 163.51 155.95 163.83C153.47 166.28 148.33 166.1 145.53 163.7Z" fill="#EEEDEB"/>
<path d="M166.56 367.69C166.3 368.76 166.11 369.42 166.04 369.42C165.87 370 165.67 370.58 165.44 371.14C164.42 370.66 163.39 370.16 162.39 369.63C162.26 369.56 162.12 369.49 161.99 369.41C159.48 368.09 157.01 366.61 154.64 365.03C151.47 362.9 148.45 360.52 145.54 358.01C144.52 357.14 143.51 356.25 142.52 355.32H142.51C139.4 352.51 136.4 349.58 133.45 346.71C131.16 344.47 128.9 342.26 126.62 340.14C125.61 339.2 124.62 338.27 123.6 337.37C117.25 331.69 110.66 326.74 102.9 323.48C92.62 319.18 80.32 317.89 64.2 319.46C61.9 319.68 59.55 319.95 57.28 320.21C48.15 321.26 38.72 322.34 29.46 320.68C15.1 318.08 5.68997 310.54 3.65997 299.98L7.17999 299.3C9.65999 312.12 24.03 316.05 30.1 317.15C38.84 318.72 48 317.67 56.87 316.65C59.16 316.39 61.53 316.12 63.87 315.9C80.6 314.27 93.45 315.64 104.3 320.19C113.08 323.87 120.53 329.7 127.47 336.04C128.47 336.95 129.45 337.86 130.42 338.79C132.3 340.57 134.15 342.36 135.98 344.15C139.34 347.42 142.75 350.75 146.3 353.89C147.32 354.8 148.36 355.7 149.41 356.57C151.75 358.53 154.17 360.38 156.68 362.06C158.81 363.5 161.04 364.84 163.3 366.04C163.55 366.19 163.81 366.33 164.07 366.46C164.87 366.88 165.71 367.29 166.56 367.69Z" fill="#EEEDEB"/>
<path d="M402.2 469.14C400.37 469.6 398.58 469.8 396.84 469.8C389.06 469.8 382.01 465.74 375.15 461.79C373.45 460.81 371.71 459.81 369.98 458.88C362.21 454.71 353.89 451.4 345.33 449.03C343.39 448.49 341.44 448.01 339.47 447.57C334.42 446.44 329.3 445.64 324.18 445.18C321.95 444.98 319.63 444.83 317.37 444.68C304.04 443.78 290.26 442.85 281.06 433.23C278.23 430.28 276.2 426.79 274.49 423.17C273.76 421.63 273.09 420.05 272.44 418.49C272.21 417.95 271.99 417.42 271.77 416.88C270.67 414.23 269.53 411.49 268.22 408.96C261.58 396.08 249.2 386.44 235.09 383.17C228.59 381.66 221.7 381.45 215.03 381.26C212.83 381.2 210.55 381.13 208.31 381.02C203.37 380.78 198.54 380.28 193.93 379.57C193.83 379.55 193.73 379.54 193.63 379.53C192.32 379.32 191.2 379.13 190.15 378.93C190.02 378.04 189.96 377.16 189.97 376.28H189.98C189.93 375.92 189.88 375.56 189.84 375.2C190.04 375.24 190.24 375.28 190.44 375.32C191.41 375.52 192.41 375.7 193.56 375.88C193.77 375.92 193.97 375.94 194.19 375.98C198.76 376.7 203.57 377.19 208.49 377.44C210.69 377.56 212.95 377.62 215.14 377.68C216.72 377.73 218.3 377.78 219.9 377.84H219.91C225.24 378.06 230.63 378.47 235.9 379.68C244.6 381.7 252.7 385.99 259.36 391.89C264.27 396.24 268.4 401.46 271.42 407.32C272.79 409.99 273.96 412.8 275.08 415.52C275.76 417.16 276.44 418.78 277.15 420.35C277.88 421.98 278.64 423.56 279.5 425.06C280.68 427.13 282.02 429.05 283.67 430.76C291.9 439.36 304.97 440.25 317.62 441.11C319.89 441.26 322.25 441.42 324.51 441.62C331.42 442.23 338.31 443.45 345.06 445.25C346.86 445.73 348.64 446.25 350.42 446.81C357.78 449.12 364.94 452.11 371.69 455.74C373.46 456.69 375.23 457.71 376.94 458.69C385.09 463.38 392.78 467.82 401.33 465.67L402.2 469.14Z" fill="#EEEDEB"/>
<path d="M166.41 322.48C166.82 323.59 167.33 324.71 167.86 325.83C166.67 326.09 165.49 326.38 164.3 326.69C156.07 328.84 148.03 331.97 140.2 335.02C136.98 336.28 133.71 337.54 130.39 338.77C129.13 339.23 127.88 339.69 126.61 340.13C125.6 339.19 124.61 338.26 123.59 337.36C124.87 336.93 126.16 336.48 127.44 336.02C131.3 334.63 135.13 333.14 138.88 331.67C146.67 328.63 154.66 325.52 162.91 323.33C164.08 323.03 165.24 322.74 166.41 322.48Z" fill="#EEEDEB"/>
<path d="M500.48 339.24C500.04 340.54 499.59 341.84 499.12 343.14C497.77 343.35 496.41 343.49 495.02 343.59C483.43 344.39 471.06 341.58 459.62 338.99L458.09 338.65C421.28 330.32 392.92 330.4 368.82 338.86C363.33 340.79 357.86 343.24 352.58 345.62C343.01 349.92 333.13 354.37 322.51 355.98C319.29 356.47 316.1 356.7 312.92 356.7C294.34 356.7 276.37 349.05 258.9 341.6C255.4 340.11 251.77 338.56 248.24 337.13C227.86 328.84 209.59 324.39 192.98 323.72C191.62 323.67 190.28 323.64 188.95 323.63C188.35 322.43 187.73 321.23 187.11 320.05C188.46 320.03 189.8 320.03 191.17 320.07C208.72 320.47 228.02 325.03 249.59 333.81C253.16 335.26 256.79 336.81 260.31 338.3C280.3 346.81 300.98 355.63 321.97 352.44C332.1 350.9 341.77 346.56 351.11 342.35C356.46 339.94 362 337.46 367.63 335.48C392.4 326.79 421.39 326.68 458.88 335.15L460.41 335.5C472.1 338.15 484.8 341.02 496.35 339.86C497.75 339.71 499.13 339.51 500.48 339.24Z" fill="#EEEDEB"/>
<path d="M168.85 347C169.86 346.79 170.89 346.6 171.91 346.44C171.69 347.71 171.41 348.97 171.08 350.23C170.57 350.32 170.06 350.42 169.55 350.52C168.75 350.68 167.95 350.86 167.16 351.05C161.13 352.43 155.2 354.41 149.38 356.56C148.1 357.03 146.81 357.51 145.54 358.01C144.52 357.14 143.51 356.25 142.52 355.32C143.77 354.84 145.02 354.36 146.27 353.88C153.36 351.2 160.61 348.72 168.1 347.14C168.34 347.09 168.59 347.05 168.85 347Z" fill="#EEEDEB"/>
<path d="M490.13 365.16C489.75 365.98 489.37 366.79 488.98 367.6C488.81 367.98 488.63 368.35 488.45 368.73C487.1 368.69 485.76 368.6 484.4 368.48C476.08 367.76 467.63 365.85 459.64 364.03L458.11 363.69C421.31 355.37 392.94 355.44 368.84 363.91C363.35 365.83 357.88 368.29 352.59 370.67C343.03 374.96 333.14 379.41 322.53 381.03C319.31 381.51 316.12 381.74 312.94 381.74C294.36 381.74 276.39 374.09 258.92 366.65C255.42 365.16 251.79 363.61 248.26 362.18C229.34 354.48 212.24 350.1 196.62 348.97C195.41 348.88 194.2 348.81 193.02 348.76C193.22 347.57 193.39 346.37 193.51 345.19C194.7 345.24 195.9 345.32 197.1 345.41C213.04 346.6 230.44 351.06 249.61 358.86C253.18 360.31 256.81 361.86 260.33 363.36C280.32 371.87 301 380.69 321.99 377.49C332.12 375.95 341.78 371.61 351.12 367.41C356.48 365 362.01 362.51 367.65 360.53C392.42 351.84 421.41 351.73 458.9 360.21L460.43 360.55C468.73 362.44 477.54 364.43 486.09 365.01C487.44 365.08 488.79 365.15 490.13 365.16Z" fill="#EEEDEB"/>
<path d="M153.66 380.07C155.89 379.3 158.12 378.56 160.38 377.89C160.7 377.63 161.03 377.35 161.34 377.07C162.62 375.91 163.69 374.55 164.53 373.04C162.55 373.52 160.59 374.07 158.64 374.67L153.66 380.07Z" fill="#EEEDEB"/>
<path d="M477.45 389.04C476.78 390.15 476.1 391.26 475.42 392.35C474.1 392.13 472.77 391.88 471.45 391.62C467.44 390.85 463.48 389.95 459.63 389.08L458.1 388.74C421.29 380.42 392.93 380.49 368.83 388.95C363.34 390.88 357.87 393.34 352.58 395.71C343.02 400.01 333.13 404.46 322.52 406.07C319.3 406.56 316.11 406.79 312.92 406.79C294.35 406.79 276.38 399.14 258.91 391.69C255.41 390.2 251.78 388.65 248.25 387.22C227.99 378.98 209.82 374.54 193.29 373.83C192.08 373.78 190.86 373.74 189.67 373.73C189.57 372.53 189.54 371.32 189.57 370.13C190.76 370.14 191.95 370.17 193.16 370.22C210.17 370.91 228.84 375.45 249.59 383.9C253.16 385.35 256.79 386.9 260.31 388.39C280.3 396.9 300.98 405.72 321.97 402.53C332.1 400.99 341.76 396.65 351.1 392.44C356.46 390.03 361.99 387.55 367.63 385.57C392.4 376.88 421.39 376.77 458.88 385.25L460.41 385.59C464.66 386.55 469.05 387.55 473.47 388.36C474.8 388.6 476.13 388.83 477.45 389.04Z" fill="#EEEDEB"/>
<path d="M176.77 399.46C174.33 399.75 171.93 400.13 169.56 400.61C165.4 401.45 161.28 402.6 157.21 403.92L157.39 403.16C157.67 402 158.04 400.86 158.5 399.75C160.06 399.27 161.63 398.82 163.22 398.41C162.8 399.07 162.42 399.77 162.09 400.48C165.4 399.29 169.09 398.31 172.82 398.66C174.19 398.79 175.5 399.09 176.77 399.46Z" fill="#EEEDEB"/>
<path d="M462.55 411.12C461.77 412.17 460.97 413.21 460.16 414.25C459.98 414.21 459.81 414.17 459.63 414.13L458.1 413.78C457.44 413.63 456.78 413.48 456.12 413.35C420.27 405.47 392.49 405.68 368.83 414C363.34 415.92 357.87 418.38 352.59 420.76C343.02 425.05 333.14 429.5 322.52 431.12C319.3 431.6 316.11 431.83 312.93 431.83C301.56 431.83 290.42 428.96 279.48 425.04C277.81 424.44 276.14 423.81 274.47 423.16C273.74 421.62 273.07 420.04 272.42 418.48C273.98 419.12 275.55 419.74 277.13 420.33C291.82 425.92 306.82 429.87 321.98 427.56C332.11 426.02 341.78 421.69 351.12 417.48C356.47 415.07 362.01 412.58 367.64 410.6C392.34 401.93 421.23 401.81 458.56 410.2C458.67 410.22 458.78 410.24 458.89 410.27L460.42 410.62C461.13 410.79 461.83 410.95 462.55 411.12Z" fill="#EEEDEB"/>
<path d="M444.63 432.45C443.64 433.5 442.65 434.55 441.64 435.58C440.12 435.33 438.62 435.09 437.13 434.87C410.19 430.87 388.15 432.26 368.84 439.04C363.35 440.97 357.88 443.43 352.6 445.8C351.87 446.12 351.14 446.46 350.41 446.79C348.72 447.54 347.02 448.29 345.32 449.03C343.38 448.49 341.43 448.01 339.46 447.57C341.34 446.82 343.2 446.04 345.05 445.23C347.1 444.34 349.12 443.43 351.13 442.53C356.48 440.12 362.02 437.64 367.65 435.66C388.14 428.47 411.52 427.15 440.2 431.72C441.66 431.93 443.14 432.19 444.63 432.45Z" fill="#EEEDEB"/>
<path d="M187.48 393.48L188.84 395.17C189.92 395.17 191 395.19 192.1 395.22L187.48 393.48ZM187.48 393.48L188.84 395.17C189.92 395.17 191 395.19 192.1 395.22L187.48 393.48ZM187.48 393.48L188.84 395.17C189.92 395.17 191 395.19 192.1 395.22L187.48 393.48ZM311.12 147.24C309.73 143.91 307.61 141.03 305.55 138.26C304.03 136.2 302.6 134.26 301.44 132.15C297.75 125.47 297.12 117.2 299.75 110.03C300.07 109.17 299.7 108.22 298.88 107.8C298.06 107.39 297.07 107.66 296.57 108.42C289.81 118.71 289.86 133.07 296.69 143.31C297.3 144.24 297.98 145.16 298.63 146.06C299.81 147.67 300.96 149.24 301.79 150.81C302.8 152.7 303.36 154.58 303.01 156.53C302.96 156.82 302.88 157.1 302.79 157.37C302.51 158.23 302.06 159.05 301.49 159.83C300.76 160.84 299.84 161.79 298.86 162.75C298.58 163.03 298.29 163.31 298.01 163.59C295.5 166.02 292.9 168.53 292.02 172.12C291.62 173.73 291.65 175.32 291.68 176.86C291.7 178.57 291.73 180.18 291.14 181.51C290.56 182.81 289.37 183.87 288.1 184.99C287.08 185.91 286.01 186.86 285.13 188.04C284.03 189.53 283.39 191.19 282.77 192.8C282.11 194.52 281.48 196.13 280.39 197.28C278.67 199.09 275.95 199.63 273.08 200.21C271 200.62 268.85 201.05 266.86 201.99C264.69 203.01 262.93 204.54 261.22 206.01C259.48 207.51 257.83 208.94 255.91 209.7C253.77 210.55 251.36 210.57 248.8 210.6C247.16 210.61 245.46 210.63 243.76 210.87C238.32 211.64 233.26 214.84 230.23 219.43C229.68 220.27 229.2 221.15 228.74 221.99C228.12 223.1 227.54 224.16 226.83 225.09C225.59 226.69 224.05 227.57 222.7 227.47C221.22 227.36 219.87 226.14 218.45 224.85C217.97 224.4 217.48 223.96 216.99 223.56C212.57 219.93 206.44 218.75 200.19 220.32C196.45 221.25 193.08 223 190.08 224.93C191.06 220.39 191.33 215.74 191.59 211.2C191.63 210.41 191.68 209.62 191.73 208.84C192.12 202.56 192.83 195.38 196.24 189.52C199.1 184.63 205.12 179.88 211.59 181.05C212.14 181.15 212.69 181.28 213.28 181.44C214.73 181.8 216.36 182.21 218.09 182.01C220.38 181.73 222.22 180.46 223.85 179.32C225.14 178.42 226.37 177.58 227.66 177.29C228.48 177.12 229.41 177.15 230.39 177.18C231.52 177.22 232.7 177.25 233.93 177C239 175.94 241.48 170.77 242.08 166.66C242.39 164.46 242.34 162.28 242.3 160.17C242.26 158.79 242.24 157.47 242.3 156.17C242.35 155.67 242.4 155.16 242.42 154.66C242.47 153.69 241.74 152.86 240.78 152.78C239.81 152.71 238.96 153.41 238.85 154.37C238.8 154.87 238.75 155.37 238.72 155.86C238.18 160.53 236 164.99 232.63 168.28C231.55 169.33 230.64 169.94 229.76 170.19C228.92 170.43 227.9 170.41 226.83 170.38C225.17 170.34 223.28 170.28 221.55 171.26C220.89 171.64 220.35 172.1 219.86 172.52C219.39 172.93 218.98 173.28 218.58 173.45C217.58 173.85 216.19 173.23 214.73 172.56C214.37 172.4 214.01 172.24 213.66 172.09C213.38 171.97 213.1 171.87 212.82 171.77C211.65 171.36 210.45 171.08 209.24 170.94C207.64 170.73 206.03 170.77 204.47 171.01C202.94 171.24 201.47 171.67 200.08 172.28H200.07C199.38 172.59 198.71 172.94 198.08 173.33C198.39 169.76 197.73 166.09 196.13 162.9C195.67 161.98 195.14 161.11 194.64 160.27C193.65 158.64 192.73 157.11 192.4 155.47C192.23 154.6 192.23 153.66 192.22 152.65C192.22 152.01 192.22 151.36 192.18 150.68C191.87 146.19 189.64 141.64 185.88 137.88C182.42 134.41 178.18 132.01 174.48 130.12C172.15 128.93 169.62 127.73 166.89 127.02C160.32 125.33 153.17 126.76 147.74 130.84C147.32 131.15 146.9 131.5 146.48 131.83C145 133.02 143.6 134.15 142.07 134.32C141.04 134.44 139.9 134.1 138.68 133.76C137.79 133.5 136.87 133.24 135.9 133.1C130.52 132.38 124.88 135.94 120.81 142.62C120.07 143.82 119.38 145.08 118.72 146.3C116.68 149.99 114.76 153.49 111.66 155.75C108.8 157.84 104.82 158.83 100.44 158.54C96.15 158.26 92.47 157.06 88.78 155.75C87.97 155.46 87.07 155.79 86.63 156.52C86.19 157.26 86.33 158.2 86.97 158.77C91.81 163.15 98.68 165.34 105.8 164.73C112.92 164.14 119.34 160.85 123.39 155.72C124.6 154.19 125.61 152.55 126.58 150.96C127.59 149.3 128.56 147.74 129.7 146.33C132.13 143.35 135.14 141.77 137.78 142.11C138.61 142.22 139.47 142.51 140.38 142.83C141.85 143.32 143.51 143.89 145.34 143.73C148.13 143.48 150.2 141.67 152.02 140.08C152.42 139.72 152.83 139.37 153.23 139.04C157.09 135.91 162.3 134.58 166.82 135.58C171.55 136.63 175.55 140.3 176.75 144.71C177.01 145.65 177.16 146.65 177.32 147.7C177.5 148.88 177.68 150.1 178.03 151.32C178.77 153.87 180.14 156.05 181.47 158.17C182.63 160.02 183.72 161.77 184.36 163.68C186.08 168.83 184.31 174.26 182.43 180.02C180.72 185.23 178.97 190.61 179.74 196.14C179.79 196.54 179.86 196.92 179.93 197.32C180.14 198.49 180.33 199.59 180.1 200.52C179.83 201.62 178.97 202.59 177.96 203.69C177 204.75 176.01 205.85 175.37 207.26C174.55 209.07 174.45 211.05 174.57 212.98C172.24 208.75 168.5 205.13 165.27 202.35C158.85 196.81 153.12 191.28 153.46 184.49C153.5 183.65 152.96 182.89 152.14 182.67C151.33 182.45 150.48 182.82 150.08 183.57C147.57 188.3 149.71 193.86 152.55 197.48C153.89 199.19 155.42 200.69 156.92 202.13C158.53 203.69 160.05 205.17 161.3 206.86C165.64 212.72 166.41 220.94 167.03 227.54C167.34 230.85 167.69 234.61 166.28 237.64C164.53 241.37 160.37 243.53 156.35 245.62C155.85 245.87 155.36 246.13 154.88 246.39C147.93 250.07 144.38 254.48 144.31 259.5C144.27 262.29 145.37 264.75 146.43 267.13C147.41 269.32 148.33 271.39 148.22 273.45C148.15 274.78 147.64 276.13 147.11 277.55C146.52 279.1 145.92 280.7 145.77 282.51C145.32 288.37 149.55 292.22 153.65 295.96C156.26 298.34 158.97 300.8 160.28 303.68C161.51 306.4 161.53 309.53 161.55 312.83C161.56 315.21 161.58 317.67 162.05 320.1C162.27 321.2 162.58 322.26 162.96 323.3C163.36 324.45 163.84 325.56 164.34 326.66C164.69 327.43 165.06 328.2 165.42 328.95C166.68 331.55 167.85 333.99 168.44 336.6C169.19 339.98 168.88 343.52 168.14 347.11C167.88 348.4 167.56 349.71 167.21 351.01C166.84 352.35 166.46 353.68 166.07 355C165.09 358.35 164.1 361.76 163.58 365.16C163.58 365.16 163.49 365.47 163.31 366C163.05 366.78 162.61 368.05 162.03 369.39C161.22 371.28 160.16 373.31 158.98 374.38C158.88 374.46 158.78 374.55 158.68 374.63C158.37 374.89 158.06 375.15 157.75 375.4C156.91 376.07 156.03 376.77 155.27 377.67C154.63 378.42 154.13 379.21 153.71 380.03C153.27 380.87 152.91 381.73 152.56 382.58C152.11 383.66 151.68 384.67 151.13 385.57C149.56 388.16 146.65 390.17 142.94 391.23C139.45 392.24 135.64 392.37 131.96 392.49L127.05 392.66L130.91 395.7C137.08 400.58 145.59 402.13 153.09 399.77C154.01 399.48 154.91 399.14 155.78 398.81C157.08 398.32 158.35 397.83 159.58 397.55C159.19 398.25 158.85 398.98 158.54 399.71C158.07 400.82 157.7 401.96 157.43 403.12L157.25 403.88L156.61 406.52L159.85 405.2C163.77 403.6 168.21 401.79 172.53 402.2C174.66 402.4 176.74 403.13 178.94 403.91L180.11 404.31C188.05 407.04 196.34 408.58 204.74 408.88L212.7 409.17L205.63 405.5C203.42 404.34 201.32 402.94 199.38 401.33C205.14 402.82 211.05 403.53 217.06 403.48L222.23 403.42H222.25L225.82 403.38L217.73 400.02C215.55 399.11 213.5 398.25 211.58 397.34C211.57 397.34 211.57 397.33 211.56 397.33H211.55C207.78 395.59 204.47 393.72 201.51 391.23C197.49 387.85 194.85 383.72 193.97 379.52C193.83 378.9 193.74 378.27 193.68 377.65C193.77 377.67 193.86 377.68 193.95 377.69C193.82 377.05 193.7 376.43 193.6 375.81C193.49 375.12 193.4 374.44 193.35 373.77C193.34 373.68 193.33 373.6 193.32 373.51C193.23 372.4 193.2 371.27 193.22 370.16C193.31 365.57 194.27 360.97 195.27 356.16C195.77 353.77 196.28 351.35 196.66 348.91C196.86 347.72 197.02 346.54 197.14 345.34C197.46 342.24 197.51 339.12 197.06 335.98C196.44 331.64 194.86 327.51 193.05 323.66C192.47 322.41 191.85 321.19 191.24 320C190.8 319.15 190.35 318.3 189.92 317.49L174.42 288C173.15 285.59 171.84 283.1 171.31 280.5C170.06 274.34 173.14 268.03 176.33 262.67C179.53 257.31 182.69 252.66 185.99 248.5C186.94 247.31 187.87 246.04 188.76 244.81C191.25 241.38 193.82 237.83 197.25 235.61C202.55 232.2 206.19 234.76 210.8 238.01C213.27 239.74 215.83 241.54 218.84 242.51C224.57 244.34 231.08 242.19 234.32 237.37C235.87 235.07 236.85 232.62 237.8 230.25C239.81 225.23 241.4 221.26 247.66 220.34C249.34 220.1 251.11 220.19 252.99 220.29C256.14 220.45 259.4 220.62 262.47 219.14C265.18 217.83 267 215.57 268.76 213.38C270.3 211.46 271.75 209.64 273.67 208.66C275.39 207.77 277.51 207.53 279.75 207.29C283.05 206.92 286.45 206.54 289.03 204.02C291.06 202.02 291.78 199.42 292.47 196.91C293 194.99 293.5 193.18 294.54 191.84C295.33 190.83 296.47 190.02 297.67 189.16C299.4 187.92 301.19 186.65 302.3 184.57C303.03 183.2 303.28 181.78 303.53 180.41C303.62 179.89 303.71 179.37 303.84 178.86C304.5 176.14 306.05 173.7 307.7 171.13C308.28 170.22 308.87 169.29 309.42 168.34C309.96 167.43 310.47 166.49 310.91 165.52C311.11 165.08 311.3 164.63 311.46 164.17C311.71 163.52 311.92 162.86 312.11 162.19C312.44 160.95 312.68 159.68 312.8 158.4C313.14 154.64 312.59 150.74 311.12 147.24ZM235.1 170.85C236.32 169.66 237.41 168.34 238.35 166.91C237.73 169.87 235.96 172.89 233.16 173.48C232.47 173.62 231.7 173.62 230.89 173.6C232.73 173.01 234.17 171.75 235.1 170.85ZM307.59 164.08C307.33 164.66 307.04 165.23 306.73 165.8V165.81C306.66 165.93 306.6 166.03 306.53 166.15C306.52 166.16 306.51 166.17 306.51 166.18C305.94 167.19 305.29 168.21 304.62 169.25C302.89 171.96 301.09 174.76 300.29 178.07C300.16 178.64 300.05 179.24 299.94 179.83C299.73 180.98 299.54 182.07 299.07 182.95C298.37 184.28 297 185.25 295.54 186.29C294.17 187.26 292.76 188.27 291.65 189.69C290.17 191.6 289.56 193.85 288.96 196.02C288.37 198.17 287.8 200.2 286.46 201.52C284.76 203.17 282.11 203.47 279.3 203.78C276.83 204.06 274.28 204.34 271.96 205.53C269.37 206.87 267.6 209.06 265.9 211.19C264.32 213.16 262.84 215.01 260.85 215.97C258.62 217.05 255.95 216.91 253.13 216.76C251.16 216.66 249.12 216.55 247.09 216.85C238.78 218.06 236.56 223.61 234.42 228.98C233.54 231.17 232.63 233.43 231.29 235.43C228.96 238.88 224.05 240.48 219.88 239.15C217.39 238.35 215.07 236.72 212.81 235.14C208.01 231.76 202.57 227.93 195.24 232.66C191.24 235.25 188.47 239.06 185.79 242.76C184.88 244.01 184.02 245.19 183.12 246.33C179.71 250.63 176.46 255.4 173.18 260.91C169.65 266.86 166.24 273.93 167.73 281.29C168.36 284.39 169.8 287.11 171.18 289.74L186.68 319.23C186.82 319.51 186.97 319.78 187.12 320.06C187.74 321.25 188.36 322.44 188.96 323.64C191.02 327.77 192.8 332.05 193.45 336.56C193.86 339.43 193.81 342.3 193.49 345.19C193.36 346.38 193.19 347.57 193 348.76C192.63 350.97 192.17 353.2 191.7 355.48C190.7 360.26 189.68 365.16 189.57 370.13C189.54 371.32 189.57 372.53 189.67 373.73C189.67 373.77 189.68 373.82 189.68 373.86C189.72 374.3 189.77 374.74 189.82 375.19C189.86 375.55 189.91 375.91 189.96 376.27H189.95C189.94 377.15 190 378.03 190.13 378.92C190.88 384.38 194.06 389.78 199.13 394.03C199.93 394.69 200.75 395.31 201.59 395.91C201.59 395.92 201.6 395.92 201.6 395.92C203.41 397.2 205.32 398.31 207.23 399.31C202.6 398.65 198.03 397.48 193.61 395.82L192.1 395.24H192.07L187.45 393.5L188.81 395.19L191.57 398.63C191.62 398.69 191.68 398.76 191.74 398.83C193.53 401.03 195.58 403.04 197.82 404.81C192.17 404.12 186.61 402.83 181.21 400.98L180.07 400.58C178.98 400.19 177.88 399.81 176.74 399.48C175.47 399.11 174.16 398.82 172.8 398.68C169.06 398.33 165.37 399.31 162.07 400.5C162.4 399.78 162.78 399.09 163.2 398.43V398.42C163.55 397.85 163.94 397.3 164.35 396.78L166.21 394.4L163.23 393.9C160.08 393.37 157.22 394.46 154.45 395.51C153.59 395.83 152.77 396.15 151.94 396.41C147.4 397.84 142.43 397.58 138.04 395.82C139.99 395.63 141.94 395.32 143.87 394.76C148.44 393.44 152.09 390.87 154.14 387.52C154.83 386.38 155.33 385.19 155.81 384.04C156.43 382.56 157.01 381.16 157.94 380.08C158.49 379.44 159.19 378.88 159.93 378.27C160.07 378.15 160.22 378.04 160.36 377.92C160.68 377.66 161.01 377.38 161.32 377.1C162.6 375.94 163.67 374.58 164.51 373.07C164.86 372.46 165.17 371.82 165.43 371.17C165.66 370.61 165.86 370.04 166.03 369.45C166.1 369.45 166.29 368.79 166.55 367.72C167.24 364.95 168.45 359.5 169.46 356.07C170.02 354.15 170.59 352.21 171.07 350.26C171.39 349 171.67 347.74 171.9 346.47C172.5 342.96 172.67 339.41 171.89 335.89C171.23 332.87 169.9 330.12 168.61 327.46C168.35 326.92 168.09 326.39 167.85 325.87C167.32 324.75 166.82 323.63 166.4 322.52C166.03 321.51 165.74 320.51 165.53 319.48C165.12 317.4 165.1 315.2 165.09 312.9C165.07 309.36 165.05 305.71 163.5 302.28C161.89 298.72 158.91 296 156.02 293.38C152.25 289.94 149 286.98 149.31 282.87C149.41 281.58 149.9 280.27 150.42 278.9C151.03 277.27 151.66 275.6 151.76 273.72C151.92 270.79 150.78 268.23 149.67 265.74C148.73 263.63 147.84 261.63 147.86 259.63C147.92 255.13 152.6 251.71 156.52 249.63C157 249.38 157.48 249.13 157.97 248.88C162.31 246.62 167.23 244.06 169.5 239.23C171.34 235.31 170.92 230.85 170.58 227.27C170.03 221.4 169.37 214.35 166.32 208.3C171.86 213.9 173.97 218.74 172.95 223.36C172.79 224.08 173.09 224.82 173.7 225.24C174.31 225.65 175.12 225.64 175.72 225.22C179.18 222.83 178.74 218.78 178.34 215.21C178.09 212.9 177.83 210.51 178.6 208.79C179.01 207.87 179.78 207.04 180.58 206.15C181.75 204.87 183.07 203.41 183.55 201.41C183.95 199.77 183.67 198.17 183.42 196.76C183.36 196.41 183.29 196.05 183.25 195.69C182.59 190.98 184.15 186.22 185.79 181.19C187.77 175.13 189.81 168.87 187.71 162.59C186.94 160.28 185.67 158.27 184.46 156.32C183.2 154.33 182.03 152.44 181.42 150.37C181.14 149.38 180.98 148.33 180.82 147.22C180.65 146.11 180.48 144.97 180.16 143.82C178.61 138.15 173.54 133.46 167.54 132.13C161.89 130.87 155.67 132.44 150.91 136.31C150.47 136.67 150.03 137.05 149.59 137.43C148.05 138.78 146.58 140.06 144.96 140.21C143.9 140.31 142.73 139.9 141.49 139.48C140.45 139.12 139.37 138.75 138.18 138.6C134.3 138.1 130.07 140.16 126.85 144.12C125.55 145.72 124.49 147.46 123.45 149.14C122.49 150.7 121.58 152.19 120.5 153.55C118.45 156.15 115.66 158.19 112.44 159.53C112.87 159.27 113.29 158.99 113.7 158.69C117.45 155.96 119.65 151.94 121.78 148.06C122.43 146.88 123.1 145.66 123.79 144.52C125.03 142.49 129.52 135.91 135.33 136.7C136.06 136.8 136.81 137.01 137.6 137.24C139.03 137.65 140.64 138.11 142.39 137.92C144.95 137.63 146.92 136.05 148.65 134.66C149.04 134.35 149.42 134.03 149.81 133.74C154.3 130.36 160.47 129.13 165.91 130.53C168.29 131.14 170.61 132.25 172.75 133.34C176.19 135.1 180.13 137.33 183.24 140.44C186.37 143.59 188.24 147.32 188.49 150.95C188.53 151.53 188.53 152.11 188.53 152.69C188.54 153.81 188.54 154.97 188.77 156.17C189.22 158.44 190.36 160.32 191.46 162.14C191.96 162.96 192.43 163.73 192.83 164.52C194.98 168.81 195.02 174.16 192.94 178.48C192.52 179.35 192.87 180.39 193.71 180.84C194.56 181.3 195.62 180.99 196.11 180.17C198.65 175.81 204.29 173.62 209.56 174.63H209.57C209.74 174.67 209.91 174.7 210.08 174.74C210.09 174.74 210.1 174.75 210.1 174.75C210.8 174.91 211.51 175.14 212.18 175.42C212.5 175.55 212.83 175.7 213.16 175.85C215.06 176.7 217.43 177.77 219.84 176.79C220.79 176.4 221.5 175.78 222.13 175.25C222.51 174.92 222.87 174.6 223.21 174.41C223.97 173.98 224.97 173.95 226.11 173.97C224.45 174.48 223.07 175.44 221.72 176.38C220.31 177.35 218.98 178.28 217.58 178.45C216.52 178.58 215.33 178.28 214.09 177.97C213.47 177.81 212.82 177.65 212.16 177.53C204 176.07 196.54 181.79 193.07 187.72C189.25 194.26 188.49 201.95 188.07 208.63C188.03 209.42 187.98 210.21 187.94 211.01C187.59 216.98 187.24 223.15 185.21 228.69C184.94 229.44 185.19 230.27 185.82 230.75C186.46 231.23 187.34 231.23 187.98 230.75C191.64 228.02 196.05 225.06 201 223.83C206.14 222.55 211.12 223.47 214.65 226.37C215.1 226.74 215.54 227.13 215.98 227.54C217.7 229.1 219.65 230.88 222.37 231.09C224.98 231.29 227.62 229.91 229.62 227.33C230.51 226.18 231.18 224.95 231.84 223.76C232.29 222.94 232.71 222.17 233.19 221.44C235.66 217.7 239.78 215.09 244.22 214.46C245.68 214.24 247.19 214.24 248.79 214.23C251.57 214.2 254.44 214.18 257.21 213.07C259.69 212.08 261.64 210.39 263.52 208.77C265.12 207.39 266.62 206.08 268.34 205.28C269.94 204.53 271.78 204.16 273.74 203.77C277.04 203.11 280.44 202.44 282.95 199.8C284.54 198.13 285.32 196.1 286.08 194.14C286.65 192.68 287.18 191.32 287.98 190.21C288.64 189.33 289.52 188.55 290.45 187.71C291.94 186.39 293.49 185.02 294.38 183C295.29 180.96 295.26 178.86 295.23 176.84C295.2 175.47 295.19 174.16 295.47 173C296.1 170.41 298.22 168.37 300.46 166.2C303.09 163.66 305.8 161.03 306.5 157.19C307.42 152.1 304.26 147.77 301.48 143.96C300.82 143.05 300.2 142.2 299.63 141.34C296.45 136.58 294.93 130.8 295.07 125.08C295.66 128.16 296.72 131.15 298.24 133.9C299.52 136.22 301.1 138.35 302.61 140.4C304.63 143.13 306.54 145.71 307.76 148.64C309.85 153.5 309.77 159.27 307.59 164.08ZM187.48 393.48L188.84 395.17C189.92 395.17 191 395.19 192.1 395.22L187.48 393.48ZM187.48 393.48L188.84 395.17C189.92 395.17 191 395.19 192.1 395.22L187.48 393.48Z" fill="#EEEDEB"/>
</svg>
